<svg width="1290" height="862" viewBox="0 0 1290 862" fill="none" xmlns="http://www.w3.org/2000/svg">
<g filter="url(#filter0_f_1_62)">
<path fill-rule="evenodd" clip-rule="evenodd" d="M1207.09 634.029C1161.71 759.49 873.197 770.156 562.668 657.852C252.138 545.549 37.1863 352.803 82.5592 227.343C127.932 101.883 416.448 91.2169 726.977 203.52C1037.51 315.824 1252.46 508.569 1207.09 634.029ZM1197.64 630.621C1153.87 751.643 870.88 760.238 565.56 649.819C260.24 539.399 48.2103 351.779 91.9781 230.757C135.746 109.735 418.737 101.14 724.057 211.559C1029.38 321.979 1241.41 509.599 1197.64 630.621Z" fill="url(#paint0_linear_1_62)"/>
</g>
<g opacity="0.4" filter="url(#filter1_f_1_62)">
<path fill-rule="evenodd" clip-rule="evenodd" d="M1205.69 637.924C1162.28 757.957 875.351 764.223 564.822 651.919C254.292 539.616 37.7489 351.271 81.1589 231.238C88.8498 209.972 104.184 192.277 125.94 178.179C112.248 189.007 102.442 201.865 97.0573 216.754C57.3838 326.455 272.733 504.898 578.053 615.317C883.373 725.736 1163.05 726.319 1202.72 616.618C1208.11 601.702 1208.79 585.515 1205.17 568.401C1212.91 593.188 1213.39 616.631 1205.69 637.924ZM508.983 157.477C576.754 170.836 648.731 190.737 722.023 217.243C795.387 243.775 863.505 274.552 924.189 307.669C863.442 275.13 795.187 244.623 721.723 218.055C648.336 191.515 576.43 171.32 508.983 157.477Z" fill="url(#paint1_linear_1_62)"/>
</g>
<defs>
<filter id="filter0_f_1_62" x="69.0142" y="118.302" width="1151.62" height="624.769" filterUnits="userSpaceOnUse" color-interpolation-filters="sRGB">
<feFlood flood-opacity="0" result="BackgroundImageFix"/>
<feBlend mode="normal" in="SourceGraphic" in2="BackgroundImageFix" result="shape"/>
<feGaussianBlur stdDeviation="3.75" result="effect1_foregroundBlur_1_62"/>
</filter>
<filter id="filter1_f_1_62" x="69.5213" y="151.377" width="1147.8" height="586.937" filterUnits="userSpaceOnUse" color-interpolation-filters="sRGB">
<feFlood flood-opacity="0" result="BackgroundImageFix"/>
<feBlend mode="normal" in="SourceGraphic" in2="BackgroundImageFix" result="shape"/>
<feGaussianBlur stdDeviation="3.05" result="effect1_foregroundBlur_1_62"/>
</filter>
<linearGradient id="paint0_linear_1_62" x1="696.061" y1="215.664" x2="548.237" y2="624.412" gradientUnits="userSpaceOnUse">
<stop stop-color="white" stop-opacity="0"/>
<stop offset="0.239583" stop-color="white" stop-opacity="0"/>
<stop offset="0.5" stop-color="white" stop-opacity="0"/>
<stop offset="0.786458" stop-color="white" stop-opacity="0"/>
<stop offset="1" stop-color="white"/>
</linearGradient>
<linearGradient id="paint1_linear_1_62" x1="694.408" y1="220.249" x2="550.169" y2="619.084" gradientUnits="userSpaceOnUse">
<stop stop-color="#4EB8C9" stop-opacity="0"/>
<stop offset="0.145833" stop-color="#916DF5" stop-opacity="0"/>
<stop offset="0.5" stop-color="#C88CF8" stop-opacity="0"/>
<stop offset="0.859375" stop-color="#ABD9E0" stop-opacity="0.24"/>
<stop offset="1" stop-color="#008DA1" stop-opacity="0.69"/>
</linearGradient>
</defs>
</svg>
