<svg width="17" height="51" viewBox="0 0 17 51" fill="none" xmlns="http://www.w3.org/2000/svg">
<g id="Vector">
<path id="Vector_2" d="M10.549 18.5431V26.7631L10.619 34.4331V40.2031V44.5831C10.619 46.3331 10.909 47.4531 11.479 47.9231C12.2297 48.461 13.1358 48.7385 14.059 48.7131C15.389 48.7831 16.059 49.0631 16.059 49.5531C16.059 50.0431 15.809 50.1331 15.299 50.1331C15.0793 50.1468 14.8588 50.1468 14.639 50.1331C12.5436 49.8558 10.4327 49.7123 8.31903 49.7031C6.16157 49.6495 4.00301 49.7463 1.85904 49.993C1.61864 50.0406 1.37409 50.0641 1.12903 50.0631C0.539028 50.0631 0.249023 49.8431 0.249023 49.4031C0.249023 48.9631 0.929023 48.663 2.24902 48.493C3.18566 48.483 4.09403 48.1708 4.83902 47.603C5.21902 47.173 5.40903 45.9631 5.40903 43.9631L5.65903 28.843C5.65903 24.803 5.35569 22.4131 4.74902 21.6731C4.13902 20.9331 2.95901 20.533 1.20901 20.483C0.619015 20.483 0.329041 20.2931 0.329041 19.9031C0.326607 19.7998 0.3523 19.6977 0.403381 19.6079C0.454463 19.5181 0.528989 19.4438 0.619019 19.3931C2.05263 19.109 3.50797 18.9484 4.96902 18.9131C7.62902 18.6831 9.50904 18.5731 10.549 18.5431ZM6.49902 0.693122C7.42443 0.690471 8.31431 1.04929 8.97903 1.69312C9.31785 1.95761 9.59587 2.29181 9.79428 2.6731C9.99269 3.05439 10.1068 3.47383 10.129 3.90308C10.1475 4.80081 9.82601 5.6723 9.22903 6.34302C8.91867 6.68152 8.53695 6.94694 8.11151 7.11988C7.68607 7.29282 7.22755 7.36896 6.76904 7.34302C5.85956 7.35225 4.9766 7.03677 4.27902 6.45313C3.92251 6.15936 3.63865 5.78723 3.44958 5.36573C3.26052 4.94423 3.17135 4.4847 3.18903 4.02308C3.17165 3.57469 3.24506 3.12744 3.40488 2.70814C3.56469 2.28884 3.8076 1.9062 4.11902 1.58314C4.43461 1.28111 4.80837 1.04644 5.21753 0.893439C5.62669 0.740435 6.06269 0.672276 6.49902 0.693122Z" fill="white"/>
</g>
</svg>
