<svg width="218" height="54" viewBox="0 0 218 54" fill="none" xmlns="http://www.w3.org/2000/svg">
<g id="&#208;&#145;&#208;&#181;&#208;&#187;&#208;&#190;&#208;&#186;">
<path d="M0.0792236 52.3431V0.93512H32.5512V9.93512H10.9512V20.6631H15.2712C20.1192 20.6631 24.0792 21.3351 27.1512 22.6791C30.2712 24.0231 32.5752 25.8711 34.0632 28.2231C35.5512 30.5751 36.2952 33.2631 36.2952 36.2871C36.2952 41.3751 34.5912 45.3351 31.1832 48.1671C27.8232 50.9511 22.4472 52.3431 15.0552 52.3431H0.0792236ZM14.6232 43.4151C17.9352 43.4151 20.5272 42.8871 22.3992 41.8311C24.3192 40.7751 25.2792 38.9271 25.2792 36.2871C25.2792 33.5511 24.2472 31.7511 22.1832 30.8871C20.1192 30.0231 17.3112 29.5911 13.7592 29.5911H10.9512V43.4151H14.6232Z" fill="#BD9039"/>
<path d="M61.3293 12.3111C66.7533 12.3111 71.0493 13.8711 74.2173 16.9911C77.3853 20.0631 78.9693 24.4551 78.9693 30.1671V35.3511H53.6253C53.7213 38.3751 54.6093 40.7511 56.2893 42.4791C58.0173 44.2071 60.3933 45.0711 63.4173 45.0711C65.9613 45.0711 68.2653 44.8311 70.3293 44.3511C72.3933 43.8231 74.5293 43.0311 76.7373 41.9751V50.2551C74.8173 51.2151 72.7773 51.9111 70.6173 52.3431C68.5053 52.8231 65.9373 53.0631 62.9133 53.0631C58.9773 53.0631 55.4973 52.3431 52.4733 50.9031C49.4493 49.4151 47.0733 47.1831 45.3453 44.2071C43.6173 41.2311 42.7533 37.4871 42.7533 32.9751C42.7533 28.3671 43.5213 24.5511 45.0573 21.5271C46.6413 18.4551 48.8253 16.1511 51.6093 14.6151C54.3933 13.0791 57.6333 12.3111 61.3293 12.3111ZM61.4013 19.9431C59.3373 19.9431 57.6093 20.6151 56.2173 21.9591C54.8733 23.3031 54.0813 25.3911 53.8413 28.2231H68.8893C68.8413 25.8231 68.2173 23.8551 67.0173 22.3191C65.8173 20.7351 63.9453 19.9431 61.4013 19.9431Z" fill="#BD9039"/>
<path d="M122.876 52.3431H112.148V21.0951H102.284C101.66 28.7751 100.82 34.9671 99.7644 39.6711C98.7563 44.3271 97.3403 47.7351 95.5163 49.8951C93.6924 52.0071 91.2443 53.0631 88.1723 53.0631C85.6763 53.0631 83.6363 52.6791 82.0523 51.9111V43.3431C83.1563 43.8231 84.3083 44.0631 85.5083 44.0631C86.3723 44.0631 87.1643 43.6311 87.8843 42.7671C88.6043 41.9031 89.2764 40.3431 89.9004 38.0871C90.5723 35.8311 91.1723 32.6871 91.7003 28.6551C92.2283 24.5751 92.7084 19.3671 93.1404 13.0311H122.876V52.3431Z" fill="#BD9039"/>
<path d="M169.787 32.6151C169.787 39.1431 168.059 44.1831 164.603 47.7351C161.195 51.2871 156.539 53.0631 150.635 53.0631C146.987 53.0631 143.723 52.2711 140.843 50.6871C138.011 49.1031 135.779 46.7991 134.147 43.7751C132.515 40.7031 131.699 36.9831 131.699 32.6151C131.699 26.0871 133.403 21.0711 136.811 17.5671C140.219 14.0631 144.899 12.3111 150.851 12.3111C154.547 12.3111 157.811 13.1031 160.643 14.6871C163.475 16.2711 165.707 18.5751 167.339 21.5991C168.971 24.5751 169.787 28.2471 169.787 32.6151ZM142.643 32.6151C142.643 36.5031 143.267 39.4551 144.515 41.4711C145.811 43.4391 147.899 44.4231 150.779 44.4231C153.611 44.4231 155.651 43.4391 156.899 41.4711C158.195 39.4551 158.843 36.5031 158.843 32.6151C158.843 28.7271 158.195 25.8231 156.899 23.9031C155.651 21.9351 153.587 20.9511 150.707 20.9511C147.875 20.9511 145.811 21.9351 144.515 23.9031C143.267 25.8231 142.643 28.7271 142.643 32.6151Z" fill="#BD9039"/>
<path d="M204.429 13.0311H216.237L200.685 31.8951L217.605 52.3431H205.437L189.381 32.3991V52.3431H178.653V13.0311H189.381V32.1111L204.429 13.0311Z" fill="#BD9039"/>
</g>
</svg>
