<svg width="248" height="40" viewBox="0 0 248 40" fill="none" xmlns="http://www.w3.org/2000/svg">
<path d="M0.270264 30.1891V2.61761H22.088V30.1891H16.2571V7.48317H6.1012V30.1891H0.270264Z" fill="#BD9039"/>
<path d="M40.3191 8.71886C42.6875 8.71886 44.6054 9.64563 46.0728 11.4992C47.5401 13.327 48.2738 16.0301 48.2738 19.6084C48.2738 23.1868 47.5144 25.9156 45.9955 27.7949C44.4767 29.6485 42.533 30.5752 40.1646 30.5752C38.6457 30.5752 37.4358 30.3049 36.5347 29.7643C35.6337 29.1979 34.9 28.5672 34.3337 27.8721H34.0247C34.2307 28.9534 34.3337 29.9831 34.3337 30.9614V39.4568H28.5799V9.10502H33.2524L34.0633 11.8467H34.3337C34.9 10.9972 35.6595 10.2635 36.612 9.64564C37.5645 9.02779 38.8002 8.71886 40.3191 8.71886ZM38.4655 13.3141C36.9724 13.3141 35.9169 13.7775 35.299 14.7043C34.7069 15.631 34.3851 17.0469 34.3337 18.952V19.5698C34.3337 21.6036 34.6297 23.1739 35.2218 24.2809C35.8397 25.3621 36.9466 25.9028 38.5427 25.9028C39.8557 25.9028 40.8211 25.3621 41.4389 24.2809C42.0825 23.1739 42.4043 21.5907 42.4043 19.5312C42.4043 15.3865 41.0914 13.3141 38.4655 13.3141Z" fill="#BD9039"/>
<path d="M72.1696 19.6084C72.1696 23.1096 71.2428 25.8127 69.3893 27.7177C67.5615 29.6227 65.0643 30.5752 61.8979 30.5752C59.9414 30.5752 58.1908 30.1505 56.6462 29.3009C55.1273 28.4514 53.9302 27.2157 53.0549 25.5938C52.1796 23.9462 51.742 21.9511 51.742 19.6084C51.742 16.1073 52.6559 13.4171 54.4837 11.5378C56.3115 9.65851 58.8215 8.71886 62.0137 8.71886C63.996 8.71886 65.7466 9.14363 67.2654 9.99318C68.7843 10.8427 69.9814 12.0784 70.8567 13.7003C71.7319 15.2964 72.1696 17.2658 72.1696 19.6084ZM57.6116 19.6084C57.6116 21.6937 57.9462 23.2769 58.6156 24.3581C59.3106 25.4136 60.4305 25.9414 61.9751 25.9414C63.494 25.9414 64.5881 25.4136 65.2574 24.3581C65.9525 23.2769 66.3 21.6937 66.3 19.6084C66.3 17.5232 65.9525 15.9657 65.2574 14.936C64.5881 13.8805 63.4811 13.3527 61.9365 13.3527C60.4176 13.3527 59.3106 13.8805 58.6156 14.936C57.9462 15.9657 57.6116 17.5232 57.6116 19.6084Z" fill="#BD9039"/>
<path d="M75.6504 17.5618C75.6504 12.9022 76.5257 9.28522 78.2763 6.71086C80.0526 4.13649 82.9745 2.4889 87.042 1.76807C88.4064 1.53638 89.7837 1.3433 91.1738 1.18884C92.5897 1.00864 94.0443 0.82843 95.5374 0.648224L96.1939 5.66824C95.3186 5.77121 94.3532 5.88706 93.2977 6.01578C92.268 6.1445 91.2382 6.27321 90.2085 6.40193C89.2045 6.50491 88.3034 6.62075 87.5054 6.74947C86.2182 6.95542 85.1498 7.27722 84.3003 7.71486C83.4508 8.12676 82.7943 8.79609 82.3309 9.72287C81.8933 10.6496 81.6229 11.9883 81.52 13.7389H81.7903C82.0992 13.2497 82.524 12.7606 83.0646 12.2715C83.631 11.7824 84.326 11.3705 85.1498 11.0358C85.9736 10.7011 86.9133 10.5338 87.9688 10.5338C90.4916 10.5338 92.4868 11.3061 93.9542 12.8507C95.4473 14.3953 96.1939 16.6994 96.1939 19.7629C96.1939 22.1571 95.7562 24.1522 94.8809 25.7483C94.0056 27.3444 92.7957 28.5544 91.2511 29.3782C89.7065 30.1762 87.9173 30.5752 85.8835 30.5752C82.7685 30.5752 80.2843 29.4554 78.4307 27.2157C76.5772 24.976 75.6504 21.758 75.6504 17.5618ZM86.2311 25.9028C87.441 25.9028 88.4193 25.4909 89.1658 24.6671C89.9382 23.8433 90.3243 22.3759 90.3243 20.2649C90.3243 18.5916 90.0411 17.2658 89.4748 16.2875C88.9342 15.2835 87.9816 14.7815 86.6172 14.7815C85.7934 14.7815 85.0211 14.9874 84.3003 15.3993C83.6052 15.7855 83.0131 16.236 82.524 16.7509C82.0349 17.24 81.7002 17.6648 81.52 18.0252C81.52 19.3381 81.6616 20.5996 81.9447 21.8095C82.2279 23.0195 82.7042 24.0106 83.3735 24.7829C84.0686 25.5295 85.0211 25.9028 86.2311 25.9028Z" fill="#BD9039"/>
<path d="M106.507 17.446C106.507 17.8836 106.481 18.4242 106.43 19.0678C106.404 19.7114 106.365 20.3679 106.314 21.0372C106.288 21.7065 106.249 22.2986 106.198 22.8135C106.146 23.3284 106.108 23.6888 106.082 23.8948L115.813 9.10502H122.725V30.1891H117.165V21.7709C117.165 21.0758 117.191 20.3164 117.242 19.4926C117.294 18.643 117.345 17.8579 117.396 17.137C117.474 16.3905 117.525 15.8241 117.551 15.438L107.858 30.1891H100.946V9.10502H106.507V17.446Z" fill="#BD9039"/>
<path d="M147.892 19.6084C147.892 23.1096 146.965 25.8127 145.112 27.7177C143.284 29.6227 140.787 30.5752 137.62 30.5752C135.664 30.5752 133.913 30.1505 132.369 29.3009C130.85 28.4514 129.653 27.2157 128.777 25.5938C127.902 23.9462 127.465 21.9511 127.465 19.6084C127.465 16.1073 128.378 13.4171 130.206 11.5378C132.034 9.65851 134.544 8.71886 137.736 8.71886C139.719 8.71886 141.469 9.14363 142.988 9.99318C144.507 10.8427 145.704 12.0784 146.579 13.7003C147.455 15.2964 147.892 17.2658 147.892 19.6084ZM133.334 19.6084C133.334 21.6937 133.669 23.2769 134.338 24.3581C135.033 25.4136 136.153 25.9414 137.698 25.9414C139.217 25.9414 140.311 25.4136 140.98 24.3581C141.675 23.2769 142.023 21.6937 142.023 19.6084C142.023 17.5232 141.675 15.9657 140.98 14.936C140.311 13.8805 139.204 13.3527 137.659 13.3527C136.14 13.3527 135.033 13.8805 134.338 14.936C133.669 15.9657 133.334 17.5232 133.334 19.6084Z" fill="#BD9039"/>
<path d="M169.724 13.43H162.812V30.1891H157.059V13.43H150.146V9.10502H169.724V13.43Z" fill="#BD9039"/>
<path d="M179.175 17.446C179.175 17.8836 179.149 18.4242 179.098 19.0678C179.072 19.7114 179.033 20.3679 178.982 21.0372C178.956 21.7065 178.918 22.2986 178.866 22.8135C178.815 23.3284 178.776 23.6888 178.75 23.8948L188.481 9.10502H195.393V30.1891H189.833V21.7709C189.833 21.0758 189.859 20.3164 189.91 19.4926C189.962 18.643 190.013 17.8579 190.065 17.137C190.142 16.3905 190.193 15.8241 190.219 15.438L180.526 30.1891H173.614V9.10502H179.175V17.446Z" fill="#BD9039"/>
<path d="M215.231 9.10502H221.564L213.223 19.2223L222.298 30.1891H215.772L207.161 19.4926V30.1891H201.407V9.10502H207.161V19.3381L215.231 9.10502Z" fill="#BD9039"/>
<path d="M230.876 17.446C230.876 17.8836 230.85 18.4242 230.799 19.0678C230.773 19.7114 230.734 20.3679 230.683 21.0372C230.657 21.7065 230.619 22.2986 230.567 22.8135C230.516 23.3284 230.477 23.6888 230.451 23.8948L240.182 9.10502H247.094V30.1891H241.534V21.7709C241.534 21.0758 241.56 20.3164 241.611 19.4926C241.663 18.643 241.714 17.8579 241.766 17.137C241.843 16.3905 241.894 15.8241 241.92 15.438L232.227 30.1891H225.315V9.10502H230.876V17.446Z" fill="#BD9039"/>
</svg>
