<svg width="1104" height="389" fill="none" xmlns="http://www.w3.org/2000/svg"><g filter="url(#filter0_bd_314_54)"><path d="M20 145c0 16.569 13.431 30 30 30h546c27.614 0 50-22.386 50-50V38c0-16.569-13.431-30-30-30H70C42.386 8 20 30.386 20 58v87z" fill="url(#paint0_radial_314_54)" fill-opacity=".3" shape-rendering="crispEdges"/><path d="M50 177h546v-4H50v4zm598-52V38h-4v87h4zM616 6H70v4h546V6zM18 58v87h4V58h-4zM70 6C41.281 6 18 29.281 18 58h4c0-26.51 21.49-48 48-48V6zm578 32c0-17.673-14.327-32-32-32v4c15.464 0 28 12.536 28 28h4zm-52 139c28.719 0 52-23.281 52-52h-4c0 26.51-21.49 48-48 48v4zm-546-4c-15.464 0-28-12.536-28-28h-4c0 17.673 14.327 32 32 32v-4z" fill="url(#paint1_linear_314_54)"/></g><path d="M43.602 134.478c0 11.046 8.954 20 20 20H375c19.33 0 35-15.67 35-35V47c0-11.046-8.954-20-20-20H78.602c-19.33 0-35 15.67-35 35v72.478z" fill="url(#paint2_linear_314_54)"/><path d="M126.834 68.52c0 4.427-1.066 7.893-3.2 10.4-2.106 2.507-5.12 3.76-9.04 3.76-2.586 0-4.773-.573-6.56-1.72-1.786-1.147-3.146-2.787-4.08-4.92-.906-2.133-1.36-4.627-1.36-7.48 0-2.827.507-5.293 1.52-7.4 1.014-2.133 2.44-3.747 4.28-4.84 1.84-1.093 4.014-1.64 6.52-1.64 3.814 0 6.747 1.213 8.8 3.64 2.08 2.427 3.12 5.827 3.12 10.2zm-5.64.04c0-3.04-.546-5.373-1.64-7-1.066-1.653-2.626-2.48-4.68-2.48-2.16 0-3.8.827-4.92 2.48-1.12 1.627-1.68 3.96-1.68 7 0 3.067.56 5.467 1.68 7.2 1.12 1.707 2.72 2.56 4.8 2.56 2.08 0 3.667-.853 4.76-2.56 1.12-1.707 1.68-4.107 1.68-7.2zm26.565-5.84V82h-5.4V67.08h-6.4V82h-5.4V62.72h17.2zm2.584 4.36c-.08-.56-.12-1.12-.12-1.68 0-.827.267-1.48.8-1.96.56-.48 1.36-.72 2.4-.72h15.44c.08.56.12 1.12.12 1.68 0 .827-.28 1.48-.84 1.96-.533.48-1.32.72-2.36.72h-3.6V82h-5.4V67.08h-6.44zM189.299 82h-5.161V70.4l-7.48 11.6h-5.2V62.72c.054-.027.28-.053.68-.08.427-.053.814-.08 1.16-.08 1.174 0 2.014.267 2.52.8.534.507.8 1.293.8 2.36v8.88l6.28-9.48c.56-.88 1.16-1.52 1.8-1.92.64-.427 1.374-.64 2.2-.64.934 0 1.734.12 2.401.36V82zm7.288-19.44c.72 0 1.334.16 1.84.48.507.293.88.733 1.12 1.32l3.84 9 3.8-8.92c.267-.613.667-1.08 1.2-1.4.534-.32 1.16-.48 1.88-.48.427 0 .894.053 1.4.16.534.08.934.187 1.2.32l1.4 18.96h-5l-.6-12.2c-.24.533-.506 1.173-.8 1.92-.293.72-.6 1.467-.92 2.24a514.1 514.1 0 00-.92 2.24c-.293.72-.56 1.347-.8 1.88h-3.88l-3.32-7.92-.48 11.84h-5.08l1.4-19c.32-.107.747-.2 1.28-.28.56-.107 1.04-.16 1.44-.16zm36.839 14.8c0 2.08.307 3.613.92 4.6-.933.347-1.813.52-2.64.52-.906 0-1.613-.173-2.12-.52-.506-.347-.84-.893-1-1.64-.666.72-1.506 1.267-2.52 1.64-.986.373-2.093.56-3.32.56-1.813 0-3.293-.52-4.44-1.56-1.12-1.04-1.68-2.493-1.68-4.36 0-2.08.84-3.693 2.52-4.84 1.68-1.147 4.107-1.8 7.28-1.96.427-.027 1.027-.04 1.8-.04v-.84c0-.987-.266-1.693-.8-2.12-.533-.453-1.426-.68-2.68-.68-.826 0-1.653.12-2.48.36-.826.24-1.893.733-3.2 1.48-.346-.4-.64-.88-.88-1.44-.24-.56-.36-.987-.36-1.28 0-.507.387-.987 1.16-1.44.8-.48 1.787-.853 2.96-1.12 1.174-.267 2.387-.4 3.64-.4 2.774 0 4.774.573 6 1.72 1.227 1.147 1.84 3.013 1.84 5.6v7.76zm-5.12-4.76h-.56a3.96 3.96 0 00-.56.04c-1.866.133-3.24.493-4.12 1.08-.88.587-1.32 1.413-1.32 2.48 0 .853.24 1.52.72 2s1.174.72 2.08.72a4.97 4.97 0 002.56-.68c.8-.48 1.2-.96 1.2-1.44v-4.2zm28.344-9.88V82h-5.4V67.08h-4.6l-.68 5.44c-.4 3.147-1.213 5.547-2.44 7.2-1.2 1.653-2.76 2.493-4.68 2.52-.986 0-1.72-.227-2.2-.68-.48-.453-.733-1.16-.76-2.12 0-.4.014-.693.04-.88.827-.027 1.547-.173 2.16-.44.614-.293 1.134-.76 1.56-1.4.427-.667.787-1.613 1.08-2.84.294-1.227.587-3.227.88-6l.56-5.16h14.48zm9.624 15.4h3.24c.88 0 1.573-.213 2.08-.64.533-.453.8-1.04.8-1.76 0-.853-.28-1.48-.84-1.88-.534-.427-1.36-.64-2.48-.64-1.094 0-2.027.04-2.8.12v4.8zm-5.32-15.4c.053-.027.28-.053.68-.08.426-.053.813-.08 1.16-.08 1.2 0 2.08.267 2.64.8.56.507.84 1.293.84 2.36v3.72c.266-.027.56-.04.88-.04.346-.027.693-.04 1.04-.04.346-.027.64-.04.88-.04 5.68 0 8.52 2.133 8.52 6.4 0 1.92-.667 3.453-2 4.6-1.307 1.12-3.147 1.68-5.52 1.68h-9.12V62.72zM298.3 82h-5.4v-7.68h-6.76V82h-5.4V62.72c.053-.027.28-.053.68-.08.426-.053.813-.08 1.16-.08 1.226 0 2.12.267 2.68.8.586.507.88 1.293.88 2.36v4.24h6.76v-7.24c.053-.027.28-.053.68-.08.426-.053.813-.08 1.16-.08 1.226 0 2.12.267 2.68.8.586.507.88 1.293.88 2.36V82zm22.375-9.68c0 3.227-.827 5.747-2.48 7.56-1.627 1.813-3.947 2.72-6.96 2.72s-5.333-.893-6.96-2.68c-1.627-1.813-2.44-4.307-2.44-7.48 0-2.053.4-3.853 1.2-5.4.8-1.547 1.907-2.72 3.32-3.52 1.44-.827 3.12-1.24 5.04-1.24 2.987 0 5.28.88 6.88 2.64 1.6 1.76 2.4 4.227 2.4 7.4zm-5.48.04c0-3.947-1.293-5.92-3.88-5.92-1.307 0-2.307.533-3 1.6-.693 1.04-1.04 2.493-1.04 4.36 0 1.973.333 3.493 1 4.56.667 1.04 1.653 1.56 2.96 1.56 2.64 0 3.96-2.053 3.96-6.16zm18.824 6.24c.88 0 1.626-.12 2.24-.36.64-.24 1.173-.52 1.6-.84.426-.347.8-.667 1.12-.96.4.507.746 1.067 1.04 1.68.32.587.48 1.053.48 1.4 0 .587-.334 1.12-1 1.6-.64.48-1.494.853-2.56 1.12-1.067.293-2.214.44-3.44.44-3.254 0-5.76-.893-7.52-2.68-1.734-1.813-2.6-4.453-2.6-7.92 0-2.053.386-3.8 1.16-5.24.8-1.467 1.893-2.587 3.28-3.36 1.413-.8 2.986-1.2 4.72-1.2 2.64 0 4.666.773 6.08 2.32 1.413 1.52 2.12 3.613 2.12 6.28 0 1.28-.04 2.107-.12 2.48h-11.76c.106 1.707.6 3.013 1.48 3.92.88.88 2.106 1.32 3.68 1.32zm1.8-8.24c0-1.52-.28-2.64-.84-3.36-.56-.72-1.414-1.08-2.56-1.08-1.12 0-2 .4-2.64 1.2-.64.773-.96 1.853-.96 3.24h7zM64.423 102.72a8.965 8.965 0 011.76-.16c1.2 0 2.08.267 2.64.8.587.507.88 1.293.88 2.36V122h-5.28v-19.28zm10.88 2.56c.48-.667.92-1.187 1.32-1.56a4.792 4.792 0 011.32-.84c.454-.187.947-.28 1.48-.28 1.04 0 1.8.24 2.28.72.48.453.72 1.213.72 2.28-.986.027-1.853.573-2.6 1.64l-1.8 2.44c-.453.613-.906 1.093-1.36 1.44a4.55 4.55 0 01-1.44.72c1.387.373 2.52 1.28 3.4 2.72l4.44 7c-.96.56-1.946.84-2.96.84-.906 0-1.653-.133-2.24-.4-.56-.267-1.026-.707-1.4-1.32l-1.44-2.32a188.75 188.75 0 01-.68-1.08 9.774 9.774 0 00-.88-1.36 5.896 5.896 0 00-1.2-1.24 3.44 3.44 0 00-1.4-.76v-3.72c.507-.107.92-.307 1.24-.6a7.21 7.21 0 001.04-1.24c.374-.507.814-1.133 1.32-1.88l.84-1.2zm26.829 7.04c0 3.227-.827 5.747-2.48 7.56-1.627 1.813-3.947 2.72-6.96 2.72s-5.333-.893-6.96-2.68c-1.627-1.813-2.44-4.307-2.44-7.48 0-2.053.4-3.853 1.2-5.4.8-1.547 1.907-2.72 3.32-3.52 1.44-.827 3.12-1.24 5.04-1.24 2.987 0 5.28.88 6.88 2.64 1.6 1.76 2.4 4.227 2.4 7.4zm-5.48.04c0-3.947-1.293-5.92-3.88-5.92-1.307 0-2.307.533-3 1.6-.693 1.04-1.04 2.493-1.04 4.36 0 1.973.333 3.493 1 4.56.667 1.04 1.653 1.56 2.96 1.56 2.64 0 3.96-2.053 3.96-6.16zm26.693-9.64V122h-5.4v-14.92h-4.6l-.68 5.44c-.4 3.147-1.213 5.547-2.44 7.2-1.2 1.653-2.76 2.493-4.68 2.52-.987 0-1.72-.227-2.2-.68-.48-.453-.733-1.16-.76-2.12 0-.4.013-.693.04-.88.827-.027 1.547-.173 2.16-.44.613-.293 1.133-.76 1.56-1.4.427-.667.787-1.613 1.08-2.84.293-1.227.587-3.227.88-6l.56-5.16h14.48zM145.488 122h-5.16v-11.6l-7.48 11.6h-5.2v-19.28c.054-.027.28-.053.68-.08.427-.053.814-.08 1.16-.08 1.174 0 2.014.267 2.52.8.534.507.8 1.293.8 2.36v8.88l6.28-9.48c.56-.88 1.16-1.52 1.8-1.92.64-.427 1.374-.64 2.2-.64.934 0 1.734.12 2.4.36V122zm20.409 0h-5.12v-7.88c-.587.773-1.373 1.387-2.36 1.84-.96.427-2.067.64-3.32.64-1.413 0-2.573-.24-3.48-.72-.88-.48-1.533-1.267-1.96-2.36-.4-1.093-.6-2.8-.6-5.12v-5.68c.053-.027.267-.053.64-.08.4-.053.773-.08 1.12-.08 1.227 0 2.12.267 2.68.8.587.507.88 1.293.88 2.36v2.44c0 1.12.08 1.96.24 2.52.187.533.48.933.88 1.2.4.24.933.36 1.6.36.907 0 1.693-.213 2.36-.64.693-.427 1.04-.933 1.04-1.52v-7.36c.053-.027.28-.053.68-.08.427-.053.813-.08 1.16-.08 1.227 0 2.12.267 2.68.8.587.507.88 1.293.88 2.36V122zm14.171-3.4c.88 0 1.627-.12 2.24-.36.64-.24 1.173-.52 1.6-.84.427-.347.8-.667 1.12-.96.4.507.747 1.067 1.04 1.68.32.587.48 1.053.48 1.4 0 .587-.333 1.12-1 1.6-.64.48-1.493.853-2.56 1.12-1.067.293-2.213.44-3.44.44-3.253 0-5.76-.893-7.52-2.68-1.733-1.813-2.6-4.453-2.6-7.92 0-2.053.387-3.8 1.16-5.24.8-1.467 1.893-2.587 3.28-3.36 1.413-.8 2.987-1.2 4.72-1.2 2.64 0 4.667.773 6.08 2.32 1.413 1.52 2.12 3.613 2.12 6.28 0 1.28-.04 2.107-.12 2.48h-11.76c.107 1.707.6 3.013 1.48 3.92.88.88 2.107 1.32 3.68 1.32zm1.8-8.24c0-1.52-.28-2.64-.84-3.36-.56-.72-1.413-1.08-2.56-1.08-1.12 0-2 .4-2.64 1.2-.64.773-.96 1.853-.96 3.24h7zm17.667 8.2c.907 0 1.76-.173 2.56-.52.8-.373 1.427-.84 1.88-1.4.32.347.627.827.92 1.44.293.613.44 1.12.44 1.52 0 .613-.28 1.133-.84 1.56-1.333 1.013-3.24 1.52-5.72 1.52-1.973 0-3.693-.4-5.16-1.2a7.997 7.997 0 01-3.32-3.52c-.747-1.547-1.12-3.413-1.12-5.6 0-2.16.4-3.973 1.2-5.44a8.485 8.485 0 013.48-3.44c1.493-.8 3.133-1.2 4.92-1.2 1.067 0 2.067.12 3 .36.933.213 1.72.533 2.36.96.507.32.853.627 1.04.92.213.293.32.64.32 1.04 0 .373-.12.84-.36 1.4a6.552 6.552 0 01-.92 1.48c-.533-.587-1.227-1.067-2.08-1.44-.827-.4-1.68-.6-2.56-.6-1.6 0-2.813.507-3.64 1.52-.827.987-1.24 2.44-1.24 4.36 0 2.08.4 3.653 1.2 4.72.827 1.04 2.04 1.56 3.64 1.56zm7.412-11.48c-.08-.56-.12-1.12-.12-1.68 0-.827.267-1.48.8-1.96.56-.48 1.36-.72 2.4-.72h15.44c.08.56.12 1.12.12 1.68 0 .827-.28 1.48-.84 1.96-.533.48-1.32.72-2.36.72h-3.6V122h-5.4v-14.92h-6.44zm30.635-4.36c2.267 0 4.014.467 5.24 1.4 1.227.933 1.84 2.24 1.84 3.92 0 .853-.213 1.613-.64 2.28-.4.667-.973 1.187-1.72 1.56 1.84.853 2.76 2.28 2.76 4.28 0 1.84-.64 3.28-1.92 4.32-1.253 1.013-3.04 1.52-5.36 1.52h-9.72v-19.28h9.52zm-4.44 11.24v4.32h4.4c.747 0 1.334-.187 1.76-.56.427-.4.64-.933.64-1.6 0-1.44-.8-2.16-2.4-2.16h-4.4zm0-3.64h3.84c1.707 0 2.56-.693 2.56-2.08 0-.533-.2-.96-.6-1.28-.373-.347-.893-.52-1.56-.52h-4.24v3.88zm32.903 2c0 3.227-.827 5.747-2.48 7.56-1.627 1.813-3.947 2.72-6.96 2.72-3.014 0-5.334-.893-6.96-2.68-1.627-1.813-2.44-4.307-2.44-7.48 0-2.053.4-3.853 1.2-5.4.8-1.547 1.906-2.72 3.32-3.52 1.44-.827 3.12-1.24 5.04-1.24 2.986 0 5.28.88 6.88 2.64 1.6 1.76 2.4 4.227 2.4 7.4zm-5.48.04c0-3.947-1.294-5.92-3.88-5.92-1.307 0-2.307.533-3 1.6-.694 1.04-1.04 2.493-1.04 4.36 0 1.973.333 3.493 1 4.56.666 1.04 1.653 1.56 2.96 1.56 2.64 0 3.96-2.053 3.96-6.16zm21.391-6.76c.56-.427 1.267-.773 2.12-1.04a8.531 8.531 0 012.56-.4c1.653 0 3.107.373 4.36 1.12a6.895 6.895 0 012.88 3.04c.667 1.307 1 2.827 1 4.56 0 2.08-.387 3.84-1.16 5.28a7.788 7.788 0 01-3.24 3.32c-1.413.747-3.053 1.12-4.92 1.12-6.4 0-9.6-4-9.6-12 0-3.867.813-7.08 2.44-9.64 1.627-2.56 3.92-4.2 6.88-4.92l3.2-.76c.907-.213 1.613-.453 2.12-.72a4.398 4.398 0 001.36-1.04c1.12.587 1.68 1.347 1.68 2.28 0 1.707-1.027 2.8-3.08 3.28l-3.44.8c-3.013.693-4.733 2.6-5.16 5.72zm-.52 6.08c0 2.267.333 3.973 1 5.12.667 1.147 1.653 1.72 2.96 1.72 1.28 0 2.253-.467 2.92-1.4.693-.96 1.04-2.36 1.04-4.2 0-3.387-1.32-5.08-3.96-5.08-1.333 0-2.533.36-3.6 1.08-.133.48-.227.907-.28 1.28-.053.347-.08.84-.08 1.48zm26.782 6.92c.88 0 1.627-.12 2.24-.36.64-.24 1.173-.52 1.6-.84.427-.347.8-.667 1.12-.96.4.507.747 1.067 1.04 1.68.32.587.48 1.053.48 1.4 0 .587-.333 1.12-1 1.6-.64.48-1.493.853-2.56 1.12-1.067.293-2.213.44-3.44.44-3.253 0-5.76-.893-7.52-2.68-1.733-1.813-2.6-4.453-2.6-7.92 0-2.053.387-3.8 1.16-5.24.8-1.467 1.893-2.587 3.28-3.36 1.413-.8 2.987-1.2 4.72-1.2 2.64 0 4.667.773 6.08 2.32 1.413 1.52 2.12 3.613 2.12 6.28 0 1.28-.04 2.107-.12 2.48h-11.76c.107 1.707.6 3.013 1.48 3.92.88.88 2.107 1.32 3.68 1.32zm1.8-8.24c0-1.52-.28-2.64-.84-3.36-.56-.72-1.413-1.08-2.56-1.08-1.12 0-2 .4-2.64 1.2-.64.773-.96 1.853-.96 3.24h7zm27.027-7.64V122h-5.4v-14.92h-4.6l-.68 5.44c-.4 3.147-1.213 5.547-2.44 7.2-1.2 1.653-2.76 2.493-4.68 2.52-.987 0-1.72-.227-2.2-.68-.48-.453-.733-1.16-.76-2.12 0-.4.013-.693.04-.88.827-.027 1.547-.173 2.16-.44.613-.293 1.133-.76 1.56-1.4.427-.667.787-1.613 1.08-2.84.293-1.227.587-3.227.88-6l.56-5.16h14.48zm4.303 0a8.97 8.97 0 011.76-.16c1.2 0 2.08.267 2.64.8.587.507.88 1.293.88 2.36V122h-5.28v-19.28zm10.88 2.56c.48-.667.92-1.187 1.32-1.56a4.8 4.8 0 011.32-.84c.454-.187.947-.28 1.48-.28 1.04 0 1.8.24 2.28.72.48.453.72 1.213.72 2.28-.986.027-1.853.573-2.6 1.64l-1.8 2.44c-.453.613-.906 1.093-1.36 1.44a4.55 4.55 0 01-1.44.72c1.387.373 2.52 1.28 3.4 2.72l4.44 7c-.96.56-1.946.84-2.96.84-.906 0-1.653-.133-2.24-.4-.56-.267-1.026-.707-1.4-1.32l-1.44-2.32a188.75 188.75 0 01-.68-1.08 9.746 9.746 0 00-.88-1.36 5.866 5.866 0 00-1.2-1.24 3.435 3.435 0 00-1.4-.76v-3.72c.507-.107.92-.307 1.24-.6a7.21 7.21 0 001.04-1.24c.374-.507.814-1.133 1.32-1.88l.84-1.2zm25.365 12.08c0 2.08.306 3.613.92 4.6-.934.347-1.814.52-2.64.52-.907 0-1.614-.173-2.12-.52-.507-.347-.84-.893-1-1.64-.667.72-1.507 1.267-2.52 1.64-.987.373-2.094.56-3.32.56-1.814 0-3.294-.52-4.44-1.56-1.12-1.04-1.68-2.493-1.68-4.36 0-2.08.84-3.693 2.52-4.84 1.68-1.147 4.106-1.8 7.28-1.96.426-.027 1.026-.04 1.8-.04v-.84c0-.987-.267-1.693-.8-2.12-.534-.453-1.427-.68-2.68-.68-.827 0-1.654.12-2.48.36-.827.24-1.894.733-3.2 1.48-.347-.4-.64-.88-.88-1.44-.24-.56-.36-.987-.36-1.28 0-.507.386-.987 1.16-1.44.8-.48 1.786-.853 2.96-1.12 1.173-.267 2.386-.4 3.64-.4 2.773 0 4.773.573 6 1.72 1.226 1.147 1.84 3.013 1.84 5.6v7.76zm-5.12-4.76h-.56c-.187 0-.374.013-.56.04-1.867.133-3.24.493-4.12 1.08-.88.587-1.32 1.413-1.32 2.48 0 .853.24 1.52.72 2s1.173.72 2.08.72c.933 0 1.786-.227 2.56-.68.8-.48 1.2-.96 1.2-1.44v-4.2z" fill="#fff"/><path d="M472.48 77V52.76l-6.288 3.168c-1.312-1.728-1.968-3.04-1.968-3.936 0-.896.512-1.616 1.536-2.16l6.816-3.552c.64-.32 1.248-.592 1.824-.816a4.78 4.78 0 011.872-.384c.992 0 1.888.256 2.688.768V77h-6.48zm18.664-6.288c1.12 0 2 .4 2.64 1.2.672.8 1.008 1.872 1.008 3.216 0 1.28-.288 2.576-.864 3.888-.576 1.312-1.28 2.336-2.112 3.072-.832.768-1.696 1.152-2.592 1.152-1.216 0-2.016-.544-2.4-1.632a5.553 5.553 0 001.536-1.008c.448-.416.8-.88 1.056-1.392.256-.48.4-.976.432-1.488-.768-.608-1.312-1.2-1.632-1.776a4.65 4.65 0 01-.432-2.016c0-.896.304-1.648.912-2.256.64-.64 1.456-.96 2.448-.96zM508.482 77V52.76l-6.288 3.168c-1.312-1.728-1.968-3.04-1.968-3.936 0-.896.512-1.616 1.536-2.16l6.816-3.552c.64-.32 1.248-.592 1.824-.816a4.78 4.78 0 011.872-.384c.992 0 1.888.256 2.688.768V77h-6.48zm25.384 0V52.76l-6.288 3.168c-1.312-1.728-1.968-3.04-1.968-3.936 0-.896.512-1.616 1.536-2.16l6.816-3.552c.64-.32 1.248-.592 1.824-.816a4.78 4.78 0 011.872-.384c.992 0 1.888.256 2.688.768V77h-6.48zm31.105-17.904V77h-6.48V53.864h17.088c.096.672.144 1.344.144 2.016 0 .992-.336 1.776-1.008 2.352-.64.576-1.584.864-2.832.864h-6.912z" fill="url(#paint3_linear_314_54)"/><path d="M444 94h157" stroke="url(#paint4_linear_314_54)" stroke-width="3" stroke-linecap="round"/><path d="M449.56 146v-28.28l-7.336 3.696c-1.531-2.016-2.296-3.547-2.296-4.592 0-1.045.597-1.885 1.792-2.52l7.952-4.144a25.278 25.278 0 012.128-.952 5.569 5.569 0 012.184-.448c1.157 0 2.203.299 3.136.896V146h-7.56zm44.23-18.312c0 6.347-1.157 11.125-3.472 14.336-2.314 3.211-5.749 4.816-10.304 4.816-4.666 0-8.157-1.587-10.472-4.76-2.277-3.173-3.416-7.971-3.416-14.392 0-6.16 1.214-10.901 3.64-14.224 2.427-3.36 5.918-5.04 10.472-5.04 4.555 0 7.952 1.587 10.192 4.76s3.36 8.008 3.36 14.504zm-7.56 0c0-4.517-.504-7.859-1.512-10.024-.97-2.165-2.52-3.248-4.648-3.248-2.165 0-3.752 1.083-4.76 3.248s-1.512 5.507-1.512 10.024c0 4.443.504 7.747 1.512 9.912 1.008 2.165 2.595 3.248 4.76 3.248 2.128 0 3.678-1.064 4.648-3.192 1.008-2.128 1.512-5.451 1.512-9.968zm37.175 0c0 6.347-1.158 11.125-3.472 14.336-2.315 3.211-5.75 4.816-10.304 4.816-4.667 0-8.158-1.587-10.472-4.76-2.278-3.173-3.416-7.971-3.416-14.392 0-6.16 1.213-10.901 3.64-14.224 2.426-3.36 5.917-5.04 10.472-5.04 4.554 0 7.952 1.587 10.192 4.76s3.36 8.008 3.36 14.504zm-7.56 0c0-4.517-.504-7.859-1.512-10.024-.971-2.165-2.52-3.248-4.648-3.248-2.166 0-3.752 1.083-4.76 3.248s-1.512 5.507-1.512 10.024c0 4.443.504 7.747 1.512 9.912 1.008 2.165 2.594 3.248 4.76 3.248 2.128 0 3.677-1.064 4.648-3.192 1.008-2.128 1.512-5.451 1.512-9.968zm25.817-8.904c1.008 0 1.867.224 2.576.672.709.411 1.232 1.027 1.568 1.848l5.376 12.6 5.32-12.488c.373-.859.933-1.512 1.68-1.96.747-.448 1.624-.672 2.632-.672a9.59 9.59 0 011.96.224c.747.112 1.307.261 1.68.448l1.96 26.544h-7l-.84-17.08a61.908 61.908 0 00-1.12 2.688c-.411 1.008-.84 2.053-1.288 3.136a668.173 668.173 0 00-1.288 3.136 81.782 81.782 0 01-1.12 2.632h-5.432l-4.648-11.088-.672 16.576h-7.112l1.96-26.6c.448-.149 1.045-.28 1.792-.392.784-.149 1.456-.224 2.016-.224zm55.677.224V146h-7.56v-20.888h-6.44l-.952 7.616c-.56 4.405-1.698 7.765-3.416 10.08-1.68 2.315-3.864 3.491-6.552 3.528-1.381 0-2.408-.317-3.08-.952-.672-.635-1.026-1.624-1.064-2.968 0-.56.019-.971.056-1.232 1.158-.037 2.166-.243 3.024-.616.859-.411 1.587-1.064 2.184-1.96.598-.933 1.102-2.259 1.512-3.976.411-1.717.822-4.517 1.232-8.4l.784-7.224h20.272z" fill="url(#paint5_linear_314_54)"/><g filter="url(#filter1_bd_314_54)"><path d="M20 327c0 16.569 13.431 30 30 30h984c27.61 0 50-22.386 50-50v-87c0-16.568-13.43-30-30-30H70c-27.614 0-50 22.386-50 50v87z" fill="url(#paint6_radial_314_54)" fill-opacity=".3" shape-rendering="crispEdges"/><path d="M18 327c0 17.673 14.327 32 32 32v-4c-15.464 0-28-12.536-28-28h-4zm32 32h984v-4H50v4zm984 0c28.72 0 52-23.281 52-52h-4c0 26.51-21.49 48-48 48v4zm52-52v-87h-4v87h4zm0-87c0-17.673-14.33-32-32-32v4c15.46 0 28 12.536 28 28h4zm-32-32H70v4h984v-4zm-984 0c-28.719 0-52 23.281-52 52h4c0-26.51 21.49-48 48-48v-4zm-52 52v87h4v-87h-4z" fill="url(#paint7_linear_314_54)"/></g><g filter="url(#filter2_d_314_54)"><path d="M43.602 316.478c0 11.046 8.954 20 20 20H980c19.33 0 35-15.67 35-35V229c0-11.046-8.95-20-20-20H78.602c-19.33 0-35 15.67-35 35v72.478z" fill="#fff"/></g><g filter="url(#filter3_d_314_54)"><path d="M43.602 316.478c0 11.046 8.954 20 20 20H672c19.33 0 35-15.67 35-35V229c0-11.046-8.954-20-20-20H78.602c-19.33 0-35 15.67-35 35v72.478z" fill="#fff"/></g><path d="M43.602 316.478c0 11.046 8.954 20 20 20H375c19.33 0 35-15.67 35-35V229c0-11.046-8.954-20-20-20H78.602c-19.33 0-35 15.67-35 35v72.478z" fill="url(#paint8_linear_314_54)"/><path d="M130.334 250.52c0 4.427-1.066 7.893-3.2 10.4-2.106 2.507-5.12 3.76-9.04 3.76-2.586 0-4.773-.573-6.56-1.72-1.786-1.147-3.146-2.787-4.08-4.92-.906-2.133-1.36-4.627-1.36-7.48 0-2.827.507-5.293 1.52-7.4 1.014-2.133 2.44-3.747 4.28-4.84 1.84-1.093 4.014-1.64 6.52-1.64 3.814 0 6.747 1.213 8.8 3.64 2.08 2.427 3.12 5.827 3.12 10.2zm-5.64.04c0-3.04-.546-5.373-1.64-7-1.066-1.653-2.626-2.48-4.68-2.48-2.16 0-3.8.827-4.92 2.48-1.12 1.627-1.68 3.96-1.68 7 0 3.067.56 5.467 1.68 7.2 1.12 1.707 2.72 2.56 4.8 2.56 2.08 0 3.667-.853 4.76-2.56 1.12-1.707 1.68-4.107 1.68-7.2zm26.565-5.84V264h-5.4v-14.92h-6.4V264h-5.4v-19.28h17.2zm2.584 4.36c-.08-.56-.12-1.12-.12-1.68 0-.827.267-1.48.8-1.96.56-.48 1.36-.72 2.4-.72h15.44c.08.56.12 1.12.12 1.68 0 .827-.28 1.48-.84 1.96-.533.48-1.32.72-2.36.72h-3.6V264h-5.4v-14.92h-6.44zM192.799 264h-5.161v-11.6l-7.48 11.6h-5.2v-19.28c.054-.027.28-.053.68-.08.427-.053.814-.08 1.16-.08 1.174 0 2.014.267 2.52.8.534.507.8 1.293.8 2.36v8.88l6.28-9.48c.56-.88 1.16-1.52 1.8-1.92.64-.427 1.374-.64 2.2-.64.934 0 1.734.12 2.401.36V264zm7.288-19.44c.72 0 1.334.16 1.84.48.507.293.88.733 1.12 1.32l3.84 9 3.8-8.92c.267-.613.667-1.08 1.2-1.4.534-.32 1.16-.48 1.88-.48.427 0 .894.053 1.4.16.534.08.934.187 1.2.32l1.4 18.96h-5l-.6-12.2c-.24.533-.506 1.173-.8 1.92-.293.72-.6 1.467-.92 2.24-.32.773-.626 1.52-.92 2.24-.293.72-.56 1.347-.8 1.88h-3.88l-3.32-7.92-.48 11.84h-5.08l1.4-19c.32-.107.747-.2 1.28-.28.56-.107 1.04-.16 1.44-.16zm36.839 14.8c0 2.08.307 3.613.92 4.6-.933.347-1.813.52-2.64.52-.906 0-1.613-.173-2.12-.52-.506-.347-.84-.893-1-1.64-.666.72-1.506 1.267-2.52 1.64-.986.373-2.093.56-3.32.56-1.813 0-3.293-.52-4.44-1.56-1.12-1.04-1.68-2.493-1.68-4.36 0-2.08.84-3.693 2.52-4.84 1.68-1.147 4.107-1.8 7.28-1.96.427-.027 1.027-.04 1.8-.04v-.84c0-.987-.266-1.693-.8-2.12-.533-.453-1.426-.68-2.68-.68-.826 0-1.653.12-2.48.36-.826.24-1.893.733-3.2 1.48-.346-.4-.64-.88-.88-1.44-.24-.56-.36-.987-.36-1.28 0-.507.387-.987 1.16-1.44.8-.48 1.787-.853 2.96-1.12 1.174-.267 2.387-.4 3.64-.4 2.774 0 4.774.573 6 1.72 1.227 1.147 1.84 3.013 1.84 5.6v7.76zm-5.12-4.76h-.56c-.186 0-.373.013-.56.04-1.866.133-3.24.493-4.12 1.08-.88.587-1.32 1.413-1.32 2.48 0 .853.24 1.52.72 2s1.174.72 2.08.72a4.97 4.97 0 002.56-.68c.8-.48 1.2-.96 1.2-1.44v-4.2zm28.344-9.88V264h-5.4v-14.92h-4.6l-.68 5.44c-.4 3.147-1.213 5.547-2.44 7.2-1.2 1.653-2.76 2.493-4.68 2.52-.986 0-1.72-.227-2.2-.68-.48-.453-.733-1.16-.76-2.12 0-.4.014-.693.04-.88.827-.027 1.547-.173 2.16-.44.614-.293 1.134-.76 1.56-1.4.427-.667.787-1.613 1.08-2.84.294-1.227.587-3.227.88-6l.56-5.16h14.48zm9.624 15.4h3.24c.88 0 1.573-.213 2.08-.64.533-.453.8-1.04.8-1.76 0-.853-.28-1.48-.84-1.88-.534-.427-1.36-.64-2.48-.64-1.094 0-2.027.04-2.8.12v4.8zm-5.32-15.4c.053-.027.28-.053.68-.08.426-.053.813-.08 1.16-.08 1.2 0 2.08.267 2.64.8.56.507.84 1.293.84 2.36v3.72c.266-.027.56-.04.88-.04.346-.027.693-.04 1.04-.04.346-.027.64-.04.88-.04 5.68 0 8.52 2.133 8.52 6.4 0 1.92-.667 3.453-2 4.6-1.307 1.12-3.147 1.68-5.52 1.68h-9.12v-19.28zM301.8 264h-5.4v-7.68h-6.76V264h-5.4v-19.28c.053-.027.28-.053.68-.08.426-.053.813-.08 1.16-.08 1.226 0 2.12.267 2.68.8.586.507.88 1.293.88 2.36v4.24h6.76v-7.24c.053-.027.28-.053.68-.08.426-.053.813-.08 1.16-.08 1.226 0 2.12.267 2.68.8.586.507.88 1.293.88 2.36V264zm22.375-9.68c0 3.227-.827 5.747-2.48 7.56-1.627 1.813-3.947 2.72-6.96 2.72s-5.333-.893-6.96-2.68c-1.627-1.813-2.44-4.307-2.44-7.48 0-2.053.4-3.853 1.2-5.4.8-1.547 1.907-2.72 3.32-3.52 1.44-.827 3.12-1.24 5.04-1.24 2.987 0 5.28.88 6.88 2.64 1.6 1.76 2.4 4.227 2.4 7.4zm-5.48.04c0-3.947-1.293-5.92-3.88-5.92-1.307 0-2.307.533-3 1.6-.693 1.04-1.04 2.493-1.04 4.36 0 1.973.333 3.493 1 4.56.667 1.04 1.653 1.56 2.96 1.56 2.64 0 3.96-2.053 3.96-6.16zm18.824 6.24c.88 0 1.626-.12 2.24-.36.64-.24 1.173-.52 1.6-.84.426-.347.8-.667 1.12-.96.4.507.746 1.067 1.04 1.68.32.587.48 1.053.48 1.4 0 .587-.334 1.12-1 1.6-.64.48-1.494.853-2.56 1.12-1.067.293-2.214.44-3.44.44-3.254 0-5.76-.893-7.52-2.68-1.734-1.813-2.6-4.453-2.6-7.92 0-2.053.386-3.8 1.16-5.24.8-1.467 1.893-2.587 3.28-3.36 1.413-.8 2.986-1.2 4.72-1.2 2.64 0 4.666.773 6.08 2.32 1.413 1.52 2.12 3.613 2.12 6.28 0 1.28-.04 2.107-.12 2.48h-11.76c.106 1.707.6 3.013 1.48 3.92.88.88 2.106 1.32 3.68 1.32zm1.8-8.24c0-1.52-.28-2.64-.84-3.36-.56-.72-1.414-1.08-2.56-1.08-1.12 0-2 .4-2.64 1.2-.64.773-.96 1.853-.96 3.24h7zM90.541 284.72a8.964 8.964 0 011.76-.16c1.2 0 2.08.267 2.64.8.587.507.88 1.293.88 2.36V304h-5.28v-19.28zm10.88 2.56c.48-.667.92-1.187 1.32-1.56a4.8 4.8 0 011.32-.84c.454-.187.947-.28 1.48-.28 1.04 0 1.8.24 2.28.72.48.453.72 1.213.72 2.28-.986.027-1.853.573-2.6 1.64l-1.8 2.44c-.453.613-.906 1.093-1.36 1.44a4.55 4.55 0 01-1.44.72c1.387.373 2.52 1.28 3.4 2.72l4.44 7c-.96.56-1.946.84-2.96.84-.906 0-1.653-.133-2.24-.4-.56-.267-1.026-.707-1.4-1.32l-1.44-2.32a188.75 188.75 0 01-.68-1.08 9.77 9.77 0 00-.88-1.36 5.9 5.9 0 00-1.2-1.24 3.441 3.441 0 00-1.4-.76v-3.72c.507-.107.92-.307 1.24-.6a7.21 7.21 0 001.04-1.24c.374-.507.814-1.133 1.32-1.88l.84-1.2zm25.365 12.08c0 2.08.306 3.613.92 4.6-.934.347-1.814.52-2.64.52-.907 0-1.614-.173-2.12-.52-.507-.347-.84-.893-1-1.64-.667.72-1.507 1.267-2.52 1.64-.987.373-2.094.56-3.32.56-1.814 0-3.294-.52-4.44-1.56-1.12-1.04-1.68-2.493-1.68-4.36 0-2.08.84-3.693 2.52-4.84 1.68-1.147 4.106-1.8 7.28-1.96.426-.027 1.026-.04 1.8-.04v-.84c0-.987-.267-1.693-.8-2.12-.534-.453-1.427-.68-2.68-.68-.827 0-1.654.12-2.48.36-.827.24-1.894.733-3.2 1.48-.347-.4-.64-.88-.88-1.44-.24-.56-.36-.987-.36-1.28 0-.507.386-.987 1.16-1.44.8-.48 1.786-.853 2.96-1.12 1.173-.267 2.386-.4 3.64-.4 2.773 0 4.773.573 6 1.72 1.226 1.147 1.84 3.013 1.84 5.6v7.76zm-5.12-4.76h-.56c-.187 0-.374.013-.56.04-1.867.133-3.24.493-4.12 1.08-.88.587-1.32 1.413-1.32 2.48 0 .853.24 1.52.72 2s1.173.72 2.08.72c.933 0 1.786-.227 2.56-.68.8-.48 1.2-.96 1.2-1.44v-4.2zm25.113 9.4h-5.12v-7.88c-.587.773-1.373 1.387-2.36 1.84-.96.427-2.067.64-3.32.64-1.413 0-2.573-.24-3.48-.72-.88-.48-1.533-1.267-1.96-2.36-.4-1.093-.6-2.8-.6-5.12v-5.68c.053-.027.267-.053.64-.08.4-.053.773-.08 1.12-.08 1.227 0 2.12.267 2.68.8.587.507.88 1.293.88 2.36v2.44c0 1.12.08 1.96.24 2.52.187.533.48.933.88 1.2.4.24.933.36 1.6.36.907 0 1.693-.213 2.36-.64.693-.427 1.04-.933 1.04-1.52v-7.36c.053-.027.28-.053.68-.08.427-.053.813-.08 1.16-.08 1.227 0 2.12.267 2.68.8.587.507.88 1.293.88 2.36V304zm14.171-3.4c.88 0 1.627-.12 2.24-.36.64-.24 1.173-.52 1.6-.84.427-.347.8-.667 1.12-.96.4.507.747 1.067 1.04 1.68.32.587.48 1.053.48 1.4 0 .587-.333 1.12-1 1.6-.64.48-1.493.853-2.56 1.12-1.067.293-2.213.44-3.44.44-3.253 0-5.76-.893-7.52-2.68-1.733-1.813-2.6-4.453-2.6-7.92 0-2.053.387-3.8 1.16-5.24.8-1.467 1.893-2.587 3.28-3.36 1.413-.8 2.987-1.2 4.72-1.2 2.64 0 4.667.773 6.08 2.32 1.413 1.52 2.12 3.613 2.12 6.28 0 1.28-.04 2.107-.12 2.48h-11.76c.107 1.707.6 3.013 1.48 3.92.88.88 2.107 1.32 3.68 1.32zm1.8-8.24c0-1.52-.28-2.64-.84-3.36-.56-.72-1.413-1.08-2.56-1.08-1.12 0-2 .4-2.64 1.2-.64.773-.96 1.853-.96 3.24h7zm17.667 8.2c.907 0 1.76-.173 2.56-.52.8-.373 1.427-.84 1.88-1.4.32.347.627.827.92 1.44.293.613.44 1.12.44 1.52 0 .613-.28 1.133-.84 1.56-1.333 1.013-3.24 1.52-5.72 1.52-1.973 0-3.693-.4-5.16-1.2a7.997 7.997 0 01-3.32-3.52c-.747-1.547-1.12-3.413-1.12-5.6 0-2.16.4-3.973 1.2-5.44a8.485 8.485 0 013.48-3.44c1.493-.8 3.133-1.2 4.92-1.2 1.067 0 2.067.12 3 .36.933.213 1.72.533 2.36.96.507.32.853.627 1.04.92.213.293.32.64.32 1.04 0 .373-.12.84-.36 1.4a6.552 6.552 0 01-.92 1.48c-.533-.587-1.227-1.067-2.08-1.44-.827-.4-1.68-.6-2.56-.6-1.6 0-2.813.507-3.64 1.52-.827.987-1.24 2.44-1.24 4.36 0 2.08.4 3.653 1.2 4.72.827 1.04 2.04 1.56 3.64 1.56zm7.412-11.48c-.08-.56-.12-1.12-.12-1.68 0-.827.267-1.48.8-1.96.56-.48 1.36-.72 2.4-.72h15.44c.08.56.12 1.12.12 1.68 0 .827-.28 1.48-.84 1.96-.533.48-1.32.72-2.36.72h-3.6V304h-5.4v-14.92h-6.44zm30.635-4.36c2.267 0 4.014.467 5.24 1.4 1.227.933 1.84 2.24 1.84 3.92 0 .853-.213 1.613-.64 2.28-.4.667-.973 1.187-1.72 1.56 1.84.853 2.76 2.28 2.76 4.28 0 1.84-.64 3.28-1.92 4.32-1.253 1.013-3.04 1.52-5.36 1.52h-9.72v-19.28h9.52zm-4.44 11.24v4.32h4.4c.747 0 1.334-.187 1.76-.56.427-.4.64-.933.64-1.6 0-1.44-.8-2.16-2.4-2.16h-4.4zm0-3.64h3.84c1.707 0 2.56-.693 2.56-2.08 0-.533-.2-.96-.6-1.28-.373-.347-.893-.52-1.56-.52h-4.24v3.88zm32.903 2c0 3.227-.827 5.747-2.48 7.56-1.627 1.813-3.947 2.72-6.96 2.72-3.014 0-5.334-.893-6.96-2.68-1.627-1.813-2.44-4.307-2.44-7.48 0-2.053.4-3.853 1.2-5.4.8-1.547 1.906-2.72 3.32-3.52 1.44-.827 3.12-1.24 5.04-1.24 2.986 0 5.28.88 6.88 2.64 1.6 1.76 2.4 4.227 2.4 7.4zm-5.48.04c0-3.947-1.294-5.92-3.88-5.92-1.307 0-2.307.533-3 1.6-.694 1.04-1.04 2.493-1.04 4.36 0 1.973.333 3.493 1 4.56.666 1.04 1.653 1.56 2.96 1.56 2.64 0 3.96-2.053 3.96-6.16zm21.391-6.76c.56-.427 1.267-.773 2.12-1.04a8.536 8.536 0 012.56-.4c1.654 0 3.107.373 4.36 1.12a6.895 6.895 0 012.88 3.04c.667 1.307 1 2.827 1 4.56 0 2.08-.386 3.84-1.16 5.28a7.776 7.776 0 01-3.24 3.32c-1.413.747-3.053 1.12-4.92 1.12-6.4 0-9.6-4-9.6-12 0-3.867.814-7.08 2.44-9.64 1.627-2.56 3.92-4.2 6.88-4.92l3.2-.76c.907-.213 1.614-.453 2.12-.72a4.386 4.386 0 001.36-1.04c1.12.587 1.68 1.347 1.68 2.28 0 1.707-1.026 2.8-3.08 3.28l-3.44.8c-3.013.693-4.733 2.6-5.16 5.72zm-.52 6.08c0 2.267.334 3.973 1 5.12.667 1.147 1.654 1.72 2.96 1.72 1.28 0 2.254-.467 2.92-1.4.694-.96 1.04-2.36 1.04-4.2 0-3.387-1.32-5.08-3.96-5.08-1.333 0-2.533.36-3.6 1.08-.133.48-.226.907-.28 1.28-.053.347-.08.84-.08 1.48zm26.782 6.92c.88 0 1.627-.12 2.24-.36.64-.24 1.173-.52 1.6-.84.427-.347.8-.667 1.12-.96.4.507.747 1.067 1.04 1.68.32.587.48 1.053.48 1.4 0 .587-.333 1.12-1 1.6-.64.48-1.493.853-2.56 1.12-1.067.293-2.213.44-3.44.44-3.253 0-5.76-.893-7.52-2.68-1.733-1.813-2.6-4.453-2.6-7.92 0-2.053.387-3.8 1.16-5.24.8-1.467 1.893-2.587 3.28-3.36 1.413-.8 2.987-1.2 4.72-1.2 2.64 0 4.667.773 6.08 2.32 1.413 1.52 2.12 3.613 2.12 6.28 0 1.28-.04 2.107-.12 2.48h-11.76c.107 1.707.6 3.013 1.48 3.92.88.88 2.107 1.32 3.68 1.32zm1.8-8.24c0-1.52-.28-2.64-.84-3.36-.56-.72-1.413-1.08-2.56-1.08-1.12 0-2 .4-2.64 1.2-.64.773-.96 1.853-.96 3.24h7zm27.027-7.64V304h-5.4v-14.92h-4.6l-.68 5.44c-.4 3.147-1.213 5.547-2.44 7.2-1.2 1.653-2.76 2.493-4.68 2.52-.987 0-1.72-.227-2.2-.68-.48-.453-.733-1.16-.76-2.12 0-.4.013-.693.04-.88.827-.027 1.547-.173 2.16-.44.613-.293 1.133-.76 1.56-1.4.427-.667.787-1.613 1.08-2.84.293-1.227.587-3.227.88-6l.56-5.16h14.48zm4.303 0a8.97 8.97 0 011.76-.16c1.2 0 2.08.267 2.64.8.587.507.88 1.293.88 2.36V304h-5.28v-19.28zm10.88 2.56c.48-.667.92-1.187 1.32-1.56a4.8 4.8 0 011.32-.84c.454-.187.947-.28 1.48-.28 1.04 0 1.8.24 2.28.72.48.453.72 1.213.72 2.28-.986.027-1.853.573-2.6 1.64l-1.8 2.44c-.453.613-.906 1.093-1.36 1.44a4.55 4.55 0 01-1.44.72c1.387.373 2.52 1.28 3.4 2.72l4.44 7c-.96.56-1.946.84-2.96.84-.906 0-1.653-.133-2.24-.4-.56-.267-1.026-.707-1.4-1.32l-1.44-2.32a188.75 188.75 0 01-.68-1.08 9.746 9.746 0 00-.88-1.36 5.866 5.866 0 00-1.2-1.24 3.435 3.435 0 00-1.4-.76v-3.72c.507-.107.92-.307 1.24-.6a7.21 7.21 0 001.04-1.24c.374-.507.814-1.133 1.32-1.88l.84-1.2zm25.365 12.08c0 2.08.306 3.613.92 4.6-.934.347-1.814.52-2.64.52-.907 0-1.614-.173-2.12-.52-.507-.347-.84-.893-1-1.64-.667.72-1.507 1.267-2.52 1.64-.987.373-2.094.56-3.32.56-1.814 0-3.294-.52-4.44-1.56-1.12-1.04-1.68-2.493-1.68-4.36 0-2.08.84-3.693 2.52-4.84 1.68-1.147 4.106-1.8 7.28-1.96.426-.027 1.026-.04 1.8-.04v-.84c0-.987-.267-1.693-.8-2.12-.534-.453-1.427-.68-2.68-.68-.827 0-1.654.12-2.48.36-.827.24-1.894.733-3.2 1.48-.347-.4-.64-.88-.88-1.44-.24-.56-.36-.987-.36-1.28 0-.507.386-.987 1.16-1.44.8-.48 1.786-.853 2.96-1.12 1.173-.267 2.386-.4 3.64-.4 2.773 0 4.773.573 6 1.72 1.226 1.147 1.84 3.013 1.84 5.6v7.76zm-5.12-4.76h-.56c-.187 0-.374.013-.56.04-1.867.133-3.24.493-4.12 1.08-.88.587-1.32 1.413-1.32 2.48 0 .853.24 1.52.72 2s1.173.72 2.08.72c.933 0 1.786-.227 2.56-.68.8-.48 1.2-.96 1.2-1.44v-4.2z" fill="#fff"/><path d="M791.084 245.564c0 3.099-.747 5.525-2.24 7.28-1.475 1.755-3.584 2.632-6.328 2.632-1.811 0-3.341-.401-4.592-1.204-1.251-.803-2.203-1.951-2.856-3.444-.635-1.493-.952-3.239-.952-5.236 0-1.979.355-3.705 1.064-5.18.709-1.493 1.708-2.623 2.996-3.388 1.288-.765 2.809-1.148 4.564-1.148 2.669 0 4.723.849 6.16 2.548 1.456 1.699 2.184 4.079 2.184 7.14zm-3.948.028c0-2.128-.383-3.761-1.148-4.9-.747-1.157-1.839-1.736-3.276-1.736-1.512 0-2.66.579-3.444 1.736-.784 1.139-1.176 2.772-1.176 4.9 0 2.147.392 3.827 1.176 5.04.784 1.195 1.904 1.792 3.36 1.792s2.567-.597 3.332-1.792c.784-1.195 1.176-2.875 1.176-5.04zm18.595-4.088V255h-3.78v-10.444h-4.48V255h-3.78v-13.496h12.04zm1.809 3.052a8.306 8.306 0 01-.084-1.176c0-.579.187-1.036.56-1.372.392-.336.952-.504 1.68-.504h10.808c.056.392.084.784.084 1.176 0 .579-.196 1.036-.588 1.372-.373.336-.924.504-1.652.504h-2.52V255h-3.78v-10.444h-4.508zM834.809 255h-3.612v-8.12l-5.236 8.12h-3.64v-13.496c.037-.019.196-.037.476-.056.299-.037.569-.056.812-.056.821 0 1.409.187 1.764.56.373.355.56.905.56 1.652v6.216l4.396-6.636c.392-.616.812-1.064 1.26-1.344a2.709 2.709 0 011.54-.448c.653 0 1.213.084 1.68.252V255zm5.102-13.608c.504 0 .933.112 1.288.336.355.205.616.513.784.924l2.688 6.3 2.66-6.244c.187-.429.467-.756.84-.98.373-.224.812-.336 1.316-.336.299 0 .625.037.98.112.373.056.653.131.84.224l.98 13.272h-3.5l-.42-8.54a29.84 29.84 0 00-.56 1.344c-.205.504-.42 1.027-.644 1.568-.224.541-.439 1.064-.644 1.568-.205.504-.392.943-.56 1.316h-2.716l-2.324-5.544-.336 8.288h-3.556l.98-13.3c.224-.075.523-.14.896-.196a5.483 5.483 0 011.008-.112zm25.787 10.36c0 1.456.215 2.529.644 3.22-.653.243-1.269.364-1.848.364-.634 0-1.129-.121-1.484-.364-.354-.243-.588-.625-.7-1.148-.466.504-1.054.887-1.764 1.148-.69.261-1.465.392-2.324.392-1.269 0-2.305-.364-3.108-1.092-.784-.728-1.176-1.745-1.176-3.052 0-1.456.588-2.585 1.764-3.388 1.176-.803 2.875-1.26 5.096-1.372a21.28 21.28 0 011.26-.028v-.588c0-.691-.186-1.185-.56-1.484-.373-.317-.998-.476-1.876-.476-.578 0-1.157.084-1.736.252-.578.168-1.325.513-2.24 1.036a3.845 3.845 0 01-.616-1.008c-.168-.392-.252-.691-.252-.896 0-.355.271-.691.812-1.008.56-.336 1.251-.597 2.072-.784.822-.187 1.671-.28 2.548-.28 1.942 0 3.342.401 4.2 1.204.859.803 1.288 2.109 1.288 3.92v5.432zm-3.584-3.332h-.392c-.13 0-.261.009-.392.028-1.306.093-2.268.345-2.884.756-.616.411-.924.989-.924 1.736 0 .597.168 1.064.504 1.4.336.336.822.504 1.456.504a3.48 3.48 0 001.792-.476c.56-.336.84-.672.84-1.008v-2.94zm19.841-6.916V255h-3.78v-10.444h-3.22l-.476 3.808c-.28 2.203-.849 3.883-1.708 5.04-.84 1.157-1.932 1.745-3.276 1.764-.69 0-1.204-.159-1.54-.476-.336-.317-.513-.812-.532-1.484 0-.28.01-.485.028-.616.579-.019 1.083-.121 1.512-.308.43-.205.794-.532 1.092-.98.299-.467.551-1.129.756-1.988.206-.859.411-2.259.616-4.2l.392-3.612h10.136zm6.737 10.78h2.268c.616 0 1.101-.149 1.456-.448.373-.317.56-.728.56-1.232 0-.597-.196-1.036-.588-1.316-.374-.299-.952-.448-1.736-.448-.766 0-1.419.028-1.96.084v3.36zm-3.724-10.78c.037-.019.196-.037.476-.056.298-.037.569-.056.812-.056.84 0 1.456.187 1.848.56.392.355.588.905.588 1.652v2.604c.186-.019.392-.028.616-.028.242-.019.485-.028.728-.028a8.05 8.05 0 01.616-.028c3.976 0 5.964 1.493 5.964 4.48 0 1.344-.467 2.417-1.4 3.22-.915.784-2.203 1.176-3.864 1.176h-6.384v-13.496zM911.11 255h-3.78v-5.376h-4.732V255h-3.78v-13.496c.037-.019.196-.037.476-.056.299-.037.569-.056.812-.056.859 0 1.484.187 1.876.56.411.355.616.905.616 1.652v2.968h4.732v-5.068c.037-.019.196-.037.476-.056.299-.037.569-.056.812-.056.859 0 1.484.187 1.876.56.411.355.616.905.616 1.652V255zm15.663-6.776c0 2.259-.579 4.023-1.736 5.292-1.139 1.269-2.763 1.904-4.872 1.904-2.11 0-3.734-.625-4.872-1.876-1.139-1.269-1.708-3.015-1.708-5.236 0-1.437.28-2.697.84-3.78.56-1.083 1.334-1.904 2.324-2.464 1.008-.579 2.184-.868 3.528-.868 2.09 0 3.696.616 4.816 1.848 1.12 1.232 1.68 2.959 1.68 5.18zm-3.836.028c0-2.763-.906-4.144-2.716-4.144-.915 0-1.615.373-2.1 1.12-.486.728-.728 1.745-.728 3.052 0 1.381.233 2.445.7 3.192.466.728 1.157 1.092 2.072 1.092 1.848 0 2.772-1.437 2.772-4.312zm13.176 4.368c.616 0 1.139-.084 1.568-.252a4.475 4.475 0 001.12-.588c.299-.243.56-.467.784-.672.28.355.523.747.728 1.176.224.411.336.737.336.98 0 .411-.233.784-.7 1.12-.448.336-1.045.597-1.792.784a9.059 9.059 0 01-2.408.308c-2.277 0-4.032-.625-5.264-1.876-1.213-1.269-1.82-3.117-1.82-5.544 0-1.437.271-2.66.812-3.668.56-1.027 1.326-1.811 2.296-2.352.99-.56 2.091-.84 3.304-.84 1.848 0 3.267.541 4.256 1.624.99 1.064 1.484 2.529 1.484 4.396 0 .896-.028 1.475-.084 1.736h-8.232c.075 1.195.42 2.109 1.036 2.744.616.616 1.475.924 2.576.924zm1.26-5.768c0-1.064-.196-1.848-.588-2.352-.392-.504-.989-.756-1.792-.756-.784 0-1.4.28-1.848.84-.448.541-.672 1.297-.672 2.268h4.9zm-155.092 35.74c.635 0 1.232-.121 1.792-.364.56-.261.999-.588 1.316-.98.224.243.439.579.644 1.008.205.429.308.784.308 1.064 0 .429-.196.793-.588 1.092-.933.709-2.268 1.064-4.004 1.064-1.381 0-2.585-.28-3.612-.84a5.599 5.599 0 01-2.324-2.464c-.523-1.083-.784-2.389-.784-3.92 0-1.512.28-2.781.84-3.808a5.941 5.941 0 012.436-2.408c1.045-.56 2.193-.84 3.444-.84.747 0 1.447.084 2.1.252.653.149 1.204.373 1.652.672.355.224.597.439.728.644.149.205.224.448.224.728 0 .261-.084.588-.252.98a4.59 4.59 0 01-.644 1.036c-.373-.411-.859-.747-1.456-1.008a4.07 4.07 0 00-1.792-.42c-1.12 0-1.969.355-2.548 1.064-.579.691-.868 1.708-.868 3.052 0 1.456.28 2.557.84 3.304.579.728 1.428 1.092 2.548 1.092zm18.173-4.368c0 2.259-.579 4.023-1.736 5.292-1.139 1.269-2.763 1.904-4.872 1.904-2.11 0-3.734-.625-4.872-1.876-1.139-1.269-1.708-3.015-1.708-5.236 0-1.437.28-2.697.84-3.78.56-1.083 1.334-1.904 2.324-2.464 1.008-.579 2.184-.868 3.528-.868 2.09 0 3.696.616 4.816 1.848 1.12 1.232 1.68 2.959 1.68 5.18zm-3.836.028c0-2.763-.906-4.144-2.716-4.144-.915 0-1.615.373-2.1 1.12-.486.728-.728 1.745-.728 3.052 0 1.381.233 2.445.7 3.192.466.728 1.157 1.092 2.072 1.092 1.848 0 2.772-1.437 2.772-4.312zm18.916-.028c0 2.259-.578 4.023-1.736 5.292-1.138 1.269-2.762 1.904-4.872 1.904-2.109 0-3.733-.625-4.872-1.876-1.138-1.269-1.708-3.015-1.708-5.236 0-1.437.28-2.697.84-3.78.56-1.083 1.335-1.904 2.324-2.464 1.008-.579 2.184-.868 3.528-.868 2.091 0 3.696.616 4.816 1.848 1.12 1.232 1.68 2.959 1.68 5.18zm-3.836.028c0-2.763-.905-4.144-2.716-4.144-.914 0-1.614.373-2.1 1.12-.485.728-.728 1.745-.728 3.052 0 1.381.234 2.445.7 3.192.467.728 1.158 1.092 2.072 1.092 1.848 0 2.772-1.437 2.772-4.312zm4.237-3.696a8.306 8.306 0 01-.084-1.176c0-.579.187-1.036.56-1.372.392-.336.952-.504 1.68-.504h10.808c.056.392.084.784.084 1.176 0 .579-.196 1.036-.588 1.372-.373.336-.924.504-1.652.504h-2.52V285h-3.78v-10.444h-4.508zM843.008 285h-3.78v-5.376h-4.732V285h-3.78v-13.496c.037-.019.196-.037.476-.056.299-.037.569-.056.812-.056.859 0 1.484.187 1.876.56.411.355.616.905.616 1.652v2.968h4.732v-5.068c.037-.019.196-.037.476-.056.299-.037.569-.056.812-.056.859 0 1.484.187 1.876.56.411.355.616.905.616 1.652V285zm15.663-6.776c0 2.259-.579 4.023-1.736 5.292-1.139 1.269-2.763 1.904-4.872 1.904-2.11 0-3.734-.625-4.872-1.876-1.139-1.269-1.708-3.015-1.708-5.236 0-1.437.28-2.697.84-3.78.56-1.083 1.334-1.904 2.324-2.464 1.008-.579 2.184-.868 3.528-.868 2.09 0 3.696.616 4.816 1.848 1.12 1.232 1.68 2.959 1.68 5.18zm-3.836.028c0-2.763-.906-4.144-2.716-4.144-.915 0-1.615.373-2.1 1.12-.486.728-.728 1.745-.728 3.052 0 1.381.233 2.445.7 3.192.466.728 1.157 1.092 2.072 1.092 1.848 0 2.772-1.437 2.772-4.312zm6.288 6.748v-13.496c.038-.019.196-.037.476-.056a6.68 6.68 0 01.812-.056c.859 0 1.484.187 1.876.56.411.355.616.905.616 1.652v8.344h4.004v-10.444c.038-.019.196-.037.476-.056a6.68 6.68 0 01.812-.056c.859 0 1.484.187 1.876.56.411.355.616.905.616 1.652v8.344h4.004v-10.444c.038-.019.196-.037.476-.056a6.68 6.68 0 01.812-.056c.859 0 1.484.187 1.876.56.411.355.616.905.616 1.652V285h-19.348zm29.27-2.38c.616 0 1.138-.084 1.568-.252a4.493 4.493 0 001.12-.588c.298-.243.56-.467.784-.672.28.355.522.747.728 1.176.224.411.336.737.336.98 0 .411-.234.784-.7 1.12-.448.336-1.046.597-1.792.784a9.07 9.07 0 01-2.408.308c-2.278 0-4.032-.625-5.264-1.876-1.214-1.269-1.82-3.117-1.82-5.544 0-1.437.27-2.66.812-3.668.56-1.027 1.325-1.811 2.296-2.352.989-.56 2.09-.84 3.304-.84 1.848 0 3.266.541 4.256 1.624.989 1.064 1.484 2.529 1.484 4.396 0 .896-.028 1.475-.084 1.736h-8.232c.074 1.195.42 2.109 1.036 2.744.616.616 1.474.924 2.576.924zm1.26-5.768c0-1.064-.196-1.848-.588-2.352-.392-.504-.99-.756-1.792-.756-.784 0-1.4.28-1.848.84-.448.541-.672 1.297-.672 2.268h4.9zM909.62 285h-3.78v-5.376h-4.732V285h-3.78v-13.496c.037-.019.196-.037.476-.056.298-.037.569-.056.812-.056.858 0 1.484.187 1.876.56.41.355.616.905.616 1.652v2.968h4.732v-5.068c.037-.019.196-.037.476-.056.298-.037.569-.056.812-.056.858 0 1.484.187 1.876.56.41.355.616.905.616 1.652V285zm15.522 0h-3.612v-8.12l-5.236 8.12h-3.64v-13.496c.038-.019.196-.037.476-.056a6.68 6.68 0 01.812-.056c.822 0 1.41.187 1.764.56.374.355.56.905.56 1.652v6.216l4.396-6.636c.392-.616.812-1.064 1.26-1.344a2.71 2.71 0 011.54-.448c.654 0 1.214.084 1.68.252V285zm9.918-2.38c.616 0 1.139-.084 1.568-.252a4.475 4.475 0 001.12-.588c.299-.243.56-.467.784-.672.28.355.523.747.728 1.176.224.411.336.737.336.98 0 .411-.233.784-.7 1.12-.448.336-1.045.597-1.792.784a9.059 9.059 0 01-2.408.308c-2.277 0-4.032-.625-5.264-1.876-1.213-1.269-1.82-3.117-1.82-5.544 0-1.437.271-2.66.812-3.668.56-1.027 1.326-1.811 2.296-2.352.99-.56 2.091-.84 3.304-.84 1.848 0 3.267.541 4.256 1.624.99 1.064 1.484 2.529 1.484 4.396 0 .896-.028 1.475-.084 1.736h-8.232c.075 1.195.42 2.109 1.036 2.744.616.616 1.475.924 2.576.924zm1.26-5.768c0-1.064-.196-1.848-.588-2.352-.392-.504-.989-.756-1.792-.756-.784 0-1.4.28-1.848.84-.448.541-.672 1.297-.672 2.268h4.9zm-202.255 35.74c.635 0 1.232-.121 1.792-.364.56-.261.999-.588 1.316-.98.224.243.439.579.644 1.008.205.429.308.784.308 1.064 0 .429-.196.793-.588 1.092-.933.709-2.268 1.064-4.004 1.064-1.381 0-2.585-.28-3.612-.84a5.599 5.599 0 01-2.324-2.464c-.523-1.083-.784-2.389-.784-3.92 0-1.512.28-2.781.84-3.808a5.941 5.941 0 012.436-2.408c1.045-.56 2.193-.84 3.444-.84.747 0 1.447.084 2.1.252.653.149 1.204.373 1.652.672.355.224.597.439.728.644.149.205.224.448.224.728 0 .261-.084.588-.252.98a4.59 4.59 0 01-.644 1.036c-.373-.411-.859-.747-1.456-1.008a4.07 4.07 0 00-1.792-.42c-1.12 0-1.969.355-2.548 1.064-.579.691-.868 1.708-.868 3.052 0 1.456.28 2.557.84 3.304.579.728 1.428 1.092 2.548 1.092zm9.679-.308h1.988c.616 0 1.101-.149 1.456-.448.373-.317.56-.728.56-1.232 0-.597-.196-1.036-.588-1.316-.373-.299-.952-.448-1.736-.448-.579 0-1.139.028-1.68.084v3.36zm-3.724-10.78c.037-.019.187-.037.448-.056a5.39 5.39 0 01.756-.056c1.68 0 2.52.737 2.52 2.212v2.604l.868-.056c.299-.019.569-.028.812-.028 3.976 0 5.964 1.493 5.964 4.48 0 1.344-.467 2.417-1.4 3.22-.915.784-2.203 1.176-3.864 1.176h-6.104v-13.496zM757.24 315h-3.808v-13.496c.037-.019.196-.037.476-.056.299-.037.569-.056.812-.056 1.68 0 2.52.737 2.52 2.212V315zm9.693-13.496c1.586 0 2.809.327 3.668.98.858.653 1.288 1.568 1.288 2.744 0 .597-.15 1.129-.448 1.596-.28.467-.682.831-1.204 1.092 1.288.597 1.932 1.596 1.932 2.996 0 1.288-.448 2.296-1.344 3.024-.878.709-2.128 1.064-3.752 1.064h-6.804v-13.496h6.664zm-3.108 7.868v3.024h3.08c.522 0 .933-.131 1.232-.392.298-.28.448-.653.448-1.12 0-1.008-.56-1.512-1.68-1.512h-3.08zm0-2.548h2.688c1.194 0 1.792-.485 1.792-1.456 0-.373-.14-.672-.42-.896-.262-.243-.626-.364-1.092-.364h-2.968v2.716zm23.031 1.4c0 2.259-.578 4.023-1.736 5.292-1.138 1.269-2.762 1.904-4.872 1.904-2.109 0-3.733-.625-4.872-1.876-1.138-1.269-1.708-3.015-1.708-5.236 0-1.437.28-2.697.84-3.78.56-1.083 1.335-1.904 2.324-2.464 1.008-.579 2.184-.868 3.528-.868 2.091 0 3.696.616 4.816 1.848 1.12 1.232 1.68 2.959 1.68 5.18zm-3.836.028c0-2.763-.905-4.144-2.716-4.144-.914 0-1.614.373-2.1 1.12-.485.728-.728 1.745-.728 3.052 0 1.381.234 2.445.7 3.192.467.728 1.158 1.092 2.072 1.092 1.848 0 2.772-1.437 2.772-4.312zm9.929-5.432c.411-.485.952-.877 1.624-1.176a5.31 5.31 0 012.184-.448c1.661 0 2.949.588 3.864 1.764.915 1.157 1.372 2.837 1.372 5.04 0 1.605-.224 2.959-.672 4.06-.429 1.101-1.064 1.941-1.904 2.52-.84.56-1.829.84-2.968.84a5.167 5.167 0 01-1.456-.196 4.728 4.728 0 01-1.204-.532c-.355-.224-.588-.429-.7-.616v7.028h-3.78v-19.516l.336-.056c.299-.037.607-.056.924-.056 1.381 0 2.175.448 2.38 1.344zm5.068 5.264c0-1.363-.233-2.371-.7-3.024-.448-.672-1.148-1.008-2.1-1.008-.653 0-1.167.131-1.54.392-.373.243-.56.588-.56 1.036v6.104c.243.243.56.448.952.616a3.29 3.29 0 001.176.224c1.848 0 2.772-1.447 2.772-4.34zm19.055.14c0 2.259-.579 4.023-1.736 5.292-1.139 1.269-2.763 1.904-4.872 1.904s-3.733-.625-4.872-1.876c-1.139-1.269-1.708-3.015-1.708-5.236 0-1.437.28-2.697.84-3.78.56-1.083 1.335-1.904 2.324-2.464 1.008-.579 2.184-.868 3.528-.868 2.091 0 3.696.616 4.816 1.848 1.12 1.232 1.68 2.959 1.68 5.18zm-3.836.028c0-2.763-.905-4.144-2.716-4.144-.915 0-1.615.373-2.1 1.12-.485.728-.728 1.745-.728 3.052 0 1.381.233 2.445.7 3.192.467.728 1.157 1.092 2.072 1.092 1.848 0 2.772-1.437 2.772-4.312zm4.237-3.696a8.306 8.306 0 01-.084-1.176c0-.579.187-1.036.56-1.372.392-.336.952-.504 1.68-.504h10.808c.056.392.084.784.084 1.176 0 .579-.196 1.036-.588 1.372-.373.336-.924.504-1.652.504h-2.52V315h-3.78v-10.444h-4.508zm14.781-3.052a6.265 6.265 0 011.232-.112c.84 0 1.456.187 1.848.56.411.355.616.905.616 1.652V315h-3.696v-13.496zm7.616 1.792c.336-.467.644-.831.924-1.092.299-.261.607-.457.924-.588a2.688 2.688 0 011.036-.196c.728 0 1.26.168 1.596.504.336.317.504.849.504 1.596-.691.019-1.297.401-1.82 1.148l-1.26 1.708c-.317.429-.635.765-.952 1.008a3.201 3.201 0 01-1.008.504c.971.261 1.764.896 2.38 1.904l3.108 4.9c-.672.392-1.363.588-2.072.588-.635 0-1.157-.093-1.568-.28-.392-.187-.719-.495-.98-.924l-1.008-1.624a97.868 97.868 0 01-.476-.756 6.813 6.813 0 00-.616-.952 4.148 4.148 0 00-.84-.868 2.409 2.409 0 00-.98-.532v-2.604c.355-.075.644-.215.868-.42.243-.224.485-.513.728-.868.261-.355.569-.793.924-1.316l.588-.84zm17.755 8.456c0 1.456.215 2.529.644 3.22-.653.243-1.269.364-1.848.364-.635 0-1.129-.121-1.484-.364s-.588-.625-.7-1.148c-.467.504-1.055.887-1.764 1.148-.691.261-1.465.392-2.324.392-1.269 0-2.305-.364-3.108-1.092-.784-.728-1.176-1.745-1.176-3.052 0-1.456.588-2.585 1.764-3.388 1.176-.803 2.875-1.26 5.096-1.372a21.28 21.28 0 011.26-.028v-.588c0-.691-.187-1.185-.56-1.484-.373-.317-.999-.476-1.876-.476a6.2 6.2 0 00-1.736.252c-.579.168-1.325.513-2.24 1.036a3.819 3.819 0 01-.616-1.008c-.168-.392-.252-.691-.252-.896 0-.355.271-.691.812-1.008.56-.336 1.251-.597 2.072-.784.821-.187 1.671-.28 2.548-.28 1.941 0 3.341.401 4.2 1.204.859.803 1.288 2.109 1.288 3.92v5.432zm-3.584-3.332h-.392a2.72 2.72 0 00-.392.028c-1.307.093-2.268.345-2.884.756-.616.411-.924.989-.924 1.736 0 .597.168 1.064.504 1.4.336.336.821.504 1.456.504.653 0 1.251-.159 1.792-.476.56-.336.84-.672.84-1.008v-2.94zm8.529 6.58h-3.556l6.72-17.248c.224-.56.522-.971.896-1.232.392-.261.886-.392 1.484-.392.522 0 .924.037 1.204.112l.476.112L862.57 315zm7.68-13.496a6.265 6.265 0 011.232-.112c.84 0 1.456.187 1.848.56.41.355.616.905.616 1.652V315h-3.696v-13.496zm7.616 1.792c.336-.467.644-.831.924-1.092.298-.261.606-.457.924-.588a2.685 2.685 0 011.036-.196c.728 0 1.26.168 1.596.504.336.317.504.849.504 1.596-.691.019-1.298.401-1.82 1.148l-1.26 1.708c-.318.429-.635.765-.952 1.008a3.201 3.201 0 01-1.008.504c.97.261 1.764.896 2.38 1.904l3.108 4.9c-.672.392-1.363.588-2.072.588-.635 0-1.158-.093-1.568-.28-.392-.187-.719-.495-.98-.924l-1.008-1.624a74.49 74.49 0 01-.476-.756 6.905 6.905 0 00-.616-.952 4.148 4.148 0 00-.84-.868 2.415 2.415 0 00-.98-.532v-2.604c.354-.075.644-.215.868-.42.242-.224.485-.513.728-.868.261-.355.569-.793.924-1.316l.588-.84zm17.755 8.456c0 1.456.214 2.529.644 3.22-.654.243-1.27.364-1.848.364-.635 0-1.13-.121-1.484-.364-.355-.243-.588-.625-.7-1.148-.467.504-1.055.887-1.764 1.148-.691.261-1.466.392-2.324.392-1.27 0-2.306-.364-3.108-1.092-.784-.728-1.176-1.745-1.176-3.052 0-1.456.588-2.585 1.764-3.388 1.176-.803 2.874-1.26 5.096-1.372.298-.019.718-.028 1.26-.028v-.588c0-.691-.187-1.185-.56-1.484-.374-.317-.999-.476-1.876-.476-.579 0-1.158.084-1.736.252-.579.168-1.326.513-2.24 1.036a3.819 3.819 0 01-.616-1.008c-.168-.392-.252-.691-.252-.896 0-.355.27-.691.812-1.008.56-.336 1.25-.597 2.072-.784.821-.187 1.67-.28 2.548-.28 1.941 0 3.341.401 4.2 1.204.858.803 1.288 2.109 1.288 3.92v5.432zm-3.584-3.332h-.392a2.71 2.71 0 00-.392.028c-1.307.093-2.268.345-2.884.756-.616.411-.924.989-.924 1.736 0 .597.168 1.064.504 1.4.336.336.821.504 1.456.504.653 0 1.25-.159 1.792-.476.56-.336.84-.672.84-1.008v-2.94zm9.957 4.396c1.026 0 1.773-.14 2.24-.42.485-.28.728-.719.728-1.316 0-.485-.159-.859-.476-1.12-.299-.28-.728-.42-1.288-.42h-3.416v-2.744h3.36c.522 0 .924-.121 1.204-.364.298-.243.448-.588.448-1.036 0-.579-.215-.989-.644-1.232-.411-.243-1.083-.364-2.016-.364-1.419 0-2.651.467-3.696 1.4-.56-.896-.84-1.549-.84-1.96 0-.392.224-.737.672-1.036.466-.317 1.073-.56 1.82-.728a9.883 9.883 0 012.408-.28c1.997 0 3.509.336 4.536 1.008 1.026.672 1.54 1.661 1.54 2.968 0 1.232-.598 2.212-1.792 2.94 1.344.709 2.016 1.773 2.016 3.192 0 1.325-.551 2.343-1.652 3.052-1.102.709-2.651 1.064-4.648 1.064-1.494 0-2.688-.177-3.584-.532-.878-.355-1.316-.821-1.316-1.4 0-.205.056-.439.168-.7.112-.28.345-.7.7-1.26.634.485 1.222.821 1.764 1.008.56.187 1.148.28 1.764.28zm15.901-.196c.616 0 1.139-.084 1.568-.252a4.493 4.493 0 001.12-.588c.299-.243.56-.467.784-.672.28.355.523.747.728 1.176.224.411.336.737.336.98 0 .411-.233.784-.7 1.12-.448.336-1.045.597-1.792.784a9.064 9.064 0 01-2.408.308c-2.277 0-4.032-.625-5.264-1.876-1.213-1.269-1.82-3.117-1.82-5.544 0-1.437.271-2.66.812-3.668.56-1.027 1.325-1.811 2.296-2.352.989-.56 2.091-.84 3.304-.84 1.848 0 3.267.541 4.256 1.624.989 1.064 1.484 2.529 1.484 4.396 0 .896-.028 1.475-.084 1.736h-8.232c.075 1.195.42 2.109 1.036 2.744.616.616 1.475.924 2.576.924zm1.26-5.768c0-1.064-.196-1.848-.588-2.352-.392-.504-.989-.756-1.792-.756-.784 0-1.4.28-1.848.84-.448.541-.672 1.297-.672 2.268h4.9zM937.318 315h-3.612v-8.12L928.47 315h-3.64v-13.496c.037-.019.196-.037.476-.056.299-.037.569-.056.812-.056.821 0 1.409.187 1.764.56.373.355.56.905.56 1.652v6.216l4.396-6.636c.392-.616.812-1.064 1.26-1.344a2.709 2.709 0 011.54-.448c.653 0 1.213.084 1.68.252V315zm15.322 0h-3.78v-5.376h-4.732V315h-3.78v-13.496c.037-.019.196-.037.476-.056.299-.037.569-.056.812-.056.859 0 1.484.187 1.876.56.411.355.616.905.616 1.652v2.968h4.732v-5.068c.037-.019.196-.037.476-.056.299-.037.569-.056.812-.056.859 0 1.484.187 1.876.56.411.355.616.905.616 1.652V315zm4.603-3.668c.653 0 1.166.233 1.54.7.392.467.588 1.092.588 1.876 0 .747-.168 1.503-.504 2.268-.336.765-.747 1.363-1.232 1.792-.486.448-.99.672-1.512.672-.71 0-1.176-.317-1.4-.952.336-.149.634-.345.896-.588.261-.243.466-.513.616-.812.149-.28.233-.569.252-.868-.448-.355-.766-.7-.952-1.036a2.714 2.714 0 01-.252-1.176c0-.523.177-.961.532-1.316.373-.373.849-.56 1.428-.56zm18.015-10.584c0 1.549-.401 2.763-1.204 3.64-.803.877-1.895 1.316-3.276 1.316-1.419 0-2.529-.429-3.332-1.288-.784-.877-1.176-2.1-1.176-3.668 0-1.512.401-2.707 1.204-3.584.821-.877 1.913-1.316 3.276-1.316 1.419 0 2.52.429 3.304 1.288.803.859 1.204 2.063 1.204 3.612zm-2.8-.028c0-.952-.14-1.643-.42-2.072-.261-.448-.691-.672-1.288-.672-.56 0-.98.224-1.26.672-.261.448-.392 1.148-.392 2.1 0 1.885.551 2.828 1.652 2.828.597 0 1.027-.224 1.288-.672.28-.448.42-1.176.42-2.184zm14.812 9.8c0 1.549-.401 2.763-1.204 3.64-.803.877-1.895 1.316-3.276 1.316-1.419 0-2.529-.429-3.332-1.288-.784-.877-1.176-2.1-1.176-3.668 0-1.512.401-2.707 1.204-3.584.821-.877 1.913-1.316 3.276-1.316 1.419 0 2.52.429 3.304 1.288.803.859 1.204 2.063 1.204 3.612zm-2.8-.028c0-.952-.14-1.643-.42-2.072-.261-.448-.691-.672-1.288-.672-1.101 0-1.652.924-1.652 2.772 0 1.885.551 2.828 1.652 2.828.597 0 1.027-.224 1.288-.672.28-.448.42-1.176.42-2.184zM972.654 315h-3.108l10.584-17.556c.299-.504.541-.849.728-1.036.187-.187.392-.317.616-.392.243-.093.513-.14.812-.14.355 0 .737.037 1.148.112l.532.112-11.312 18.9z" fill="url(#paint9_linear_314_54)"/><path d="M485.652 244.564c0 3.099-.746 5.525-2.24 7.28-1.474 1.755-3.584 2.632-6.328 2.632-1.81 0-3.341-.401-4.592-1.204-1.25-.803-2.202-1.951-2.856-3.444-.634-1.493-.952-3.239-.952-5.236 0-1.979.355-3.705 1.064-5.18.71-1.493 1.708-2.623 2.996-3.388 1.288-.765 2.81-1.148 4.564-1.148 2.67 0 4.723.849 6.16 2.548 1.456 1.699 2.184 4.079 2.184 7.14zm-3.948.028c0-2.128-.382-3.761-1.148-4.9-.746-1.157-1.838-1.736-3.276-1.736-1.512 0-2.66.579-3.444 1.736-.784 1.139-1.176 2.772-1.176 4.9 0 2.147.392 3.827 1.176 5.04.784 1.195 1.904 1.792 3.36 1.792s2.567-.597 3.332-1.792c.784-1.195 1.176-2.875 1.176-5.04zm18.595-4.088V254h-3.78v-10.444h-4.48V254h-3.78v-13.496h12.04zm1.81 3.052a8.306 8.306 0 01-.084-1.176c0-.579.186-1.036.56-1.372.392-.336.952-.504 1.68-.504h10.808c.056.392.084.784.084 1.176 0 .579-.196 1.036-.588 1.372-.374.336-.924.504-1.652.504h-2.52V254h-3.78v-10.444h-4.508zM529.377 254h-3.612v-8.12l-5.236 8.12h-3.64v-13.496c.038-.019.196-.037.476-.056a6.68 6.68 0 01.812-.056c.822 0 1.41.187 1.764.56.374.355.56.905.56 1.652v6.216l4.396-6.636c.392-.616.812-1.064 1.26-1.344a2.71 2.71 0 011.54-.448c.654 0 1.214.084 1.68.252V254zm5.102-13.608c.504 0 .934.112 1.288.336.355.205.616.513.784.924l2.688 6.3 2.66-6.244c.187-.429.467-.756.84-.98.374-.224.812-.336 1.316-.336.299 0 .626.037.98.112.374.056.654.131.84.224l.98 13.272h-3.5l-.42-8.54c-.168.373-.354.821-.56 1.344-.205.504-.42 1.027-.644 1.568-.224.541-.438 1.064-.644 1.568-.205.504-.392.943-.56 1.316h-2.716l-2.324-5.544-.336 8.288h-3.556l.98-13.3c.224-.075.523-.14.896-.196a5.483 5.483 0 011.008-.112zm25.788 10.36c0 1.456.214 2.529.644 3.22-.654.243-1.27.364-1.848.364-.635 0-1.13-.121-1.484-.364-.355-.243-.588-.625-.7-1.148-.467.504-1.055.887-1.764 1.148-.691.261-1.466.392-2.324.392-1.27 0-2.306-.364-3.108-1.092-.784-.728-1.176-1.745-1.176-3.052 0-1.456.588-2.585 1.764-3.388 1.176-.803 2.874-1.26 5.096-1.372.298-.019.718-.028 1.26-.028v-.588c0-.691-.187-1.185-.56-1.484-.374-.317-.999-.476-1.876-.476-.579 0-1.158.084-1.736.252-.579.168-1.326.513-2.24 1.036a3.819 3.819 0 01-.616-1.008c-.168-.392-.252-.691-.252-.896 0-.355.27-.691.812-1.008.56-.336 1.25-.597 2.072-.784.821-.187 1.67-.28 2.548-.28 1.941 0 3.341.401 4.2 1.204.858.803 1.288 2.109 1.288 3.92v5.432zm-3.584-3.332h-.392a2.71 2.71 0 00-.392.028c-1.307.093-2.268.345-2.884.756-.616.411-.924.989-.924 1.736 0 .597.168 1.064.504 1.4.336.336.821.504 1.456.504.653 0 1.25-.159 1.792-.476.56-.336.84-.672.84-1.008v-2.94zm19.841-6.916V254h-3.78v-10.444h-3.22l-.476 3.808c-.28 2.203-.85 3.883-1.708 5.04-.84 1.157-1.932 1.745-3.276 1.764-.691 0-1.204-.159-1.54-.476-.336-.317-.514-.812-.532-1.484 0-.28.009-.485.028-.616.578-.019 1.082-.121 1.512-.308.429-.205.793-.532 1.092-.98.298-.467.55-1.129.756-1.988.205-.859.41-2.259.616-4.2l.392-3.612h10.136zm6.736 10.78h2.268c.616 0 1.101-.149 1.456-.448.373-.317.56-.728.56-1.232 0-.597-.196-1.036-.588-1.316-.373-.299-.952-.448-1.736-.448-.765 0-1.419.028-1.96.084v3.36zm-3.724-10.78c.037-.019.196-.037.476-.056.299-.037.569-.056.812-.056.84 0 1.456.187 1.848.56.392.355.588.905.588 1.652v2.604c.187-.019.392-.028.616-.028.243-.019.485-.028.728-.028.243-.019.448-.028.616-.028 3.976 0 5.964 1.493 5.964 4.48 0 1.344-.467 2.417-1.4 3.22-.915.784-2.203 1.176-3.864 1.176h-6.384v-13.496zM605.678 254h-3.78v-5.376h-4.732V254h-3.78v-13.496c.038-.019.196-.037.476-.056a6.68 6.68 0 01.812-.056c.859 0 1.484.187 1.876.56.411.355.616.905.616 1.652v2.968h4.732v-5.068c.038-.019.196-.037.476-.056a6.68 6.68 0 01.812-.056c.859 0 1.484.187 1.876.56.411.355.616.905.616 1.652V254zm6.759-2.716h1.988c.616 0 1.101-.149 1.456-.448.373-.317.56-.728.56-1.232 0-.597-.196-1.036-.588-1.316-.373-.299-.952-.448-1.736-.448-.579 0-1.139.028-1.68.084v3.36zm-3.724-10.78c.037-.019.187-.037.448-.056a5.39 5.39 0 01.756-.056c1.68 0 2.52.737 2.52 2.212v2.604l.868-.056c.299-.019.569-.028.812-.028 3.976 0 5.964 1.493 5.964 4.48 0 1.344-.467 2.417-1.4 3.22-.915.784-2.203 1.176-3.864 1.176h-6.104v-13.496zM625.933 254h-3.808v-13.496c.037-.019.196-.037.476-.056.299-.037.569-.056.812-.056 1.68 0 2.52.737 2.52 2.212V254zm15.517 0h-3.612v-8.12l-5.236 8.12h-3.64v-13.496c.037-.019.196-.037.476-.056.298-.037.569-.056.812-.056.821 0 1.409.187 1.764.56.373.355.56.905.56 1.652v6.216l4.396-6.636c.392-.616.812-1.064 1.26-1.344a2.709 2.709 0 011.54-.448c.653 0 1.213.084 1.68.252V254zm-1.372-19.236c-.206 1.269-.728 2.268-1.568 2.996-.84.728-1.923 1.092-3.248 1.092-1.382 0-2.474-.345-3.276-1.036-.803-.709-1.288-1.736-1.456-3.08.13-.093.345-.177.644-.252.298-.075.578-.112.84-.112.261 0 .466.065.616.196.168.112.317.327.448.644.205.485.485.849.84 1.092.373.243.849.364 1.428.364.485 0 .896-.103 1.232-.308.336-.224.653-.597.952-1.12.149-.261.27-.448.364-.56a.878.878 0 01.336-.224c.13-.056.28-.084.448-.084.205 0 .448.037.728.112.28.075.504.168.672.28zm-179.736 45.988c0 1.456.215 2.529.644 3.22-.653.243-1.269.364-1.848.364-.634 0-1.129-.121-1.484-.364-.354-.243-.588-.625-.7-1.148-.466.504-1.054.887-1.764 1.148-.69.261-1.465.392-2.324.392-1.269 0-2.305-.364-3.108-1.092-.784-.728-1.176-1.745-1.176-3.052 0-1.456.588-2.585 1.764-3.388 1.176-.803 2.875-1.26 5.096-1.372a21.28 21.28 0 011.26-.028v-.588c0-.691-.186-1.185-.56-1.484-.373-.317-.998-.476-1.876-.476-.578 0-1.157.084-1.736.252-.578.168-1.325.513-2.24 1.036a3.845 3.845 0 01-.616-1.008c-.168-.392-.252-.691-.252-.896 0-.355.271-.691.812-1.008.56-.336 1.251-.597 2.072-.784.822-.187 1.671-.28 2.548-.28 1.942 0 3.342.401 4.2 1.204.859.803 1.288 2.109 1.288 3.92v5.432zm-3.584-3.332h-.392c-.13 0-.261.009-.392.028-1.306.093-2.268.345-2.884.756-.616.411-.924.989-.924 1.736 0 .597.168 1.064.504 1.4.336.336.822.504 1.456.504a3.48 3.48 0 001.792-.476c.56-.336.84-.672.84-1.008v-2.94zm8.669-7.028c.504 0 .934.112 1.288.336.355.205.616.513.784.924l2.688 6.3 2.66-6.244c.187-.429.467-.756.84-.98.374-.224.812-.336 1.316-.336.299 0 .626.037.98.112.374.056.654.131.84.224l.98 13.272h-3.5l-.42-8.54c-.168.373-.354.821-.56 1.344-.205.504-.42 1.027-.644 1.568-.224.541-.438 1.064-.644 1.568-.205.504-.392.943-.56 1.316h-2.716l-2.324-5.544-.336 8.288h-3.556l.98-13.3c.224-.075.523-.14.896-.196a5.483 5.483 0 011.008-.112zM492.51 284h-3.612v-8.12l-5.236 8.12h-3.64v-13.496c.037-.019.196-.037.476-.056.298-.037.569-.056.812-.056.821 0 1.409.187 1.764.56.373.355.56.905.56 1.652v6.216l4.396-6.636c.392-.616.812-1.064 1.26-1.344a2.709 2.709 0 011.54-.448c.653 0 1.213.084 1.68.252V284zm15.322 0h-3.78v-5.376h-4.732V284h-3.78v-13.496c.037-.019.196-.037.476-.056.299-.037.569-.056.812-.056.859 0 1.484.187 1.876.56.411.355.616.905.616 1.652v2.968h4.732v-5.068c.037-.019.196-.037.476-.056.299-.037.569-.056.812-.056.859 0 1.484.187 1.876.56.411.355.616.905.616 1.652V284zm15.663-6.776c0 2.259-.579 4.023-1.736 5.292-1.139 1.269-2.763 1.904-4.872 1.904-2.11 0-3.734-.625-4.872-1.876-1.139-1.269-1.708-3.015-1.708-5.236 0-1.437.28-2.697.84-3.78.56-1.083 1.334-1.904 2.324-2.464 1.008-.579 2.184-.868 3.528-.868 2.09 0 3.696.616 4.816 1.848 1.12 1.232 1.68 2.959 1.68 5.18zm-3.836.028c0-2.763-.906-4.144-2.716-4.144-.915 0-1.615.373-2.1 1.12-.486.728-.728 1.745-.728 3.052 0 1.381.233 2.445.7 3.192.466.728 1.157 1.092 2.072 1.092 1.848 0 2.772-1.437 2.772-4.312zm6.288-6.748a6.273 6.273 0 011.232-.112c.84 0 1.456.187 1.848.56.411.355.616.905.616 1.652V284h-3.696v-13.496zm7.616 1.792c.336-.467.644-.831.924-1.092.299-.261.607-.457.924-.588a2.692 2.692 0 011.036-.196c.728 0 1.26.168 1.596.504.336.317.504.849.504 1.596-.69.019-1.297.401-1.82 1.148l-1.26 1.708c-.317.429-.634.765-.952 1.008a3.18 3.18 0 01-1.008.504c.971.261 1.764.896 2.38 1.904l3.108 4.9c-.672.392-1.362.588-2.072.588-.634 0-1.157-.093-1.568-.28-.392-.187-.718-.495-.98-.924l-1.008-1.624c-.13-.205-.289-.457-.476-.756a6.813 6.813 0 00-.616-.952 4.1 4.1 0 00-.84-.868 2.402 2.402 0 00-.98-.532v-2.604c.355-.075.644-.215.868-.42a5.03 5.03 0 00.728-.868c.262-.355.57-.793.924-1.316l.588-.84zM552.914 284h-3.612v-8.12l-5.236 8.12h-3.64v-13.496c.038-.019.196-.037.476-.056a6.68 6.68 0 01.812-.056c.822 0 1.41.187 1.764.56.374.355.56.905.56 1.652v6.216l4.396-6.636c.392-.616.812-1.064 1.26-1.344a2.71 2.71 0 011.54-.448c.654 0 1.214.084 1.68.252V284zm9.722-2.408c.635 0 1.232-.121 1.792-.364.56-.261.999-.588 1.316-.98.224.243.439.579.644 1.008.206.429.308.784.308 1.064 0 .429-.196.793-.588 1.092-.933.709-2.268 1.064-4.004 1.064-1.381 0-2.585-.28-3.612-.84a5.604 5.604 0 01-2.324-2.464c-.522-1.083-.784-2.389-.784-3.92 0-1.512.28-2.781.84-3.808a5.941 5.941 0 012.436-2.408c1.046-.56 2.194-.84 3.444-.84.747 0 1.447.084 2.1.252.654.149 1.204.373 1.652.672.355.224.598.439.728.644a1.2 1.2 0 01.224.728c0 .261-.084.588-.252.98a4.555 4.555 0 01-.644 1.036c-.373-.411-.858-.747-1.456-1.008a4.067 4.067 0 00-1.792-.42c-1.12 0-1.969.355-2.548 1.064-.578.691-.868 1.708-.868 3.052 0 1.456.28 2.557.84 3.304.579.728 1.428 1.092 2.548 1.092zm19.582-11.088V284h-3.78v-10.444h-3.22l-.476 3.808c-.28 2.203-.849 3.883-1.708 5.04-.84 1.157-1.932 1.745-3.276 1.764-.69 0-1.204-.159-1.54-.476-.336-.317-.513-.812-.532-1.484 0-.28.01-.485.028-.616.579-.019 1.083-.121 1.512-.308.43-.205.794-.532 1.092-.98.299-.467.551-1.129.756-1.988.206-.859.411-2.259.616-4.2l.392-3.612h10.136zm15.641 6.72c0 2.259-.579 4.023-1.736 5.292-1.139 1.269-2.763 1.904-4.872 1.904-2.11 0-3.734-.625-4.872-1.876-1.139-1.269-1.708-3.015-1.708-5.236 0-1.437.28-2.697.84-3.78.56-1.083 1.334-1.904 2.324-2.464 1.008-.579 2.184-.868 3.528-.868 2.09 0 3.696.616 4.816 1.848 1.12 1.232 1.68 2.959 1.68 5.18zm-3.836.028c0-2.763-.906-4.144-2.716-4.144-.915 0-1.615.373-2.1 1.12-.486.728-.728 1.745-.728 3.052 0 1.381.233 2.445.7 3.192.466.728 1.157 1.092 2.072 1.092 1.848 0 2.772-1.437 2.772-4.312zm4.237-3.696a8.306 8.306 0 01-.084-1.176c0-.579.186-1.036.56-1.372.392-.336.952-.504 1.68-.504h10.808c.056.392.084.784.084 1.176 0 .579-.196 1.036-.588 1.372-.374.336-.924.504-1.652.504h-2.52V284h-3.78v-10.444h-4.508zM625.332 284h-3.78v-5.376h-4.732V284h-3.78v-13.496c.038-.019.196-.037.476-.056a6.68 6.68 0 01.812-.056c.859 0 1.484.187 1.876.56.411.355.616.905.616 1.652v2.968h4.732v-5.068c.038-.019.196-.037.476-.056a6.68 6.68 0 01.812-.056c.859 0 1.484.187 1.876.56.411.355.616.905.616 1.652V284zm6.759-2.716h1.988c.616 0 1.101-.149 1.456-.448.373-.317.56-.728.56-1.232 0-.597-.196-1.036-.588-1.316-.373-.299-.952-.448-1.736-.448-.579 0-1.139.028-1.68.084v3.36zm-3.724-10.78c.037-.019.187-.037.448-.056a5.39 5.39 0 01.756-.056c1.68 0 2.52.737 2.52 2.212v2.604l.868-.056c.299-.019.569-.028.812-.028 3.976 0 5.964 1.493 5.964 4.48 0 1.344-.467 2.417-1.4 3.22-.915.784-2.203 1.176-3.864 1.176h-6.104v-13.496zM645.587 284h-3.808v-13.496c.037-.019.196-.037.476-.056.299-.037.569-.056.812-.056 1.68 0 2.52.737 2.52 2.212V284zm15.517 0h-3.612v-8.12l-5.236 8.12h-3.64v-13.496c.037-.019.196-.037.476-.056.298-.037.569-.056.812-.056.821 0 1.409.187 1.764.56.373.355.56.905.56 1.652v6.216l4.396-6.636c.392-.616.812-1.064 1.26-1.344a2.709 2.709 0 011.54-.448c.653 0 1.213.084 1.68.252V284zm-1.372-19.236c-.206 1.269-.728 2.268-1.568 2.996-.84.728-1.923 1.092-3.248 1.092-1.382 0-2.474-.345-3.276-1.036-.803-.709-1.288-1.736-1.456-3.08.13-.093.345-.177.644-.252.298-.075.578-.112.84-.112.261 0 .466.065.616.196.168.112.317.327.448.644.205.485.485.849.84 1.092.373.243.849.364 1.428.364.485 0 .896-.103 1.232-.308.336-.224.653-.597.952-1.12.149-.261.27-.448.364-.56a.878.878 0 01.336-.224c.13-.056.28-.084.448-.084.205 0 .448.037.728.112.28.075.504.168.672.28zM513.5 300.504V314h-3.78v-10.444h-4.48V314h-3.78v-13.496h12.04zm6.654 1.316c.41-.485.952-.877 1.624-1.176a5.31 5.31 0 012.184-.448c1.661 0 2.949.588 3.864 1.764.914 1.157 1.372 2.837 1.372 5.04 0 1.605-.224 2.959-.672 4.06-.43 1.101-1.064 1.941-1.904 2.52-.84.56-1.83.84-2.968.84a5.167 5.167 0 01-1.456-.196 4.713 4.713 0 01-1.204-.532c-.355-.224-.588-.429-.7-.616v7.028h-3.78v-19.516l.336-.056c.298-.037.606-.056.924-.056 1.381 0 2.174.448 2.38 1.344zm5.068 5.264c0-1.363-.234-2.371-.7-3.024-.448-.672-1.148-1.008-2.1-1.008-.654 0-1.167.131-1.54.392-.374.243-.56.588-.56 1.036v6.104c.242.243.56.448.952.616a3.29 3.29 0 001.176.224c1.848 0 2.772-1.447 2.772-4.34zm19.055.14c0 2.259-.579 4.023-1.736 5.292-1.139 1.269-2.763 1.904-4.872 1.904s-3.733-.625-4.872-1.876c-1.139-1.269-1.708-3.015-1.708-5.236 0-1.437.28-2.697.84-3.78.56-1.083 1.335-1.904 2.324-2.464 1.008-.579 2.184-.868 3.528-.868 2.091 0 3.696.616 4.816 1.848 1.12 1.232 1.68 2.959 1.68 5.18zm-3.836.028c0-2.763-.905-4.144-2.716-4.144-.915 0-1.615.373-2.1 1.12-.485.728-.728 1.745-.728 3.052 0 1.381.233 2.445.7 3.192.467.728 1.157 1.092 2.072 1.092 1.848 0 2.772-1.437 2.772-4.312zm16.173-6.86c1.437.093 2.669.448 3.696 1.064a6.03 6.03 0 012.352 2.436c.541 1.008.812 2.147.812 3.416 0 1.344-.29 2.539-.868 3.584a6.173 6.173 0 01-2.38 2.464c-1.027.597-2.231.943-3.612 1.036v5.712h-3.584v-5.712c-1.419-.093-2.642-.448-3.668-1.064a6.619 6.619 0 01-2.38-2.492c-.542-1.027-.812-2.175-.812-3.444 0-1.288.289-2.445.868-3.472a6.62 6.62 0 012.436-2.436c1.026-.616 2.212-.98 3.556-1.092v-5.376c.037-.019.186-.037.448-.056.28-.037.541-.056.784-.056.821 0 1.418.187 1.792.56.373.355.56.905.56 1.652v3.276zm3.22 6.944c0-1.195-.28-2.147-.84-2.856-.542-.728-1.335-1.167-2.38-1.316v8.512c1.045-.187 1.838-.653 2.38-1.4.56-.765.84-1.745.84-2.94zm-10.024.028c0 1.213.27 2.203.812 2.968.56.747 1.362 1.204 2.408 1.372v-8.54c-1.008.205-1.802.691-2.38 1.456-.56.747-.84 1.661-.84 2.744zM578.427 314h-3.612v-8.12l-5.236 8.12h-3.64v-13.496c.037-.019.196-.037.476-.056.299-.037.569-.056.812-.056.821 0 1.409.187 1.764.56.373.355.56.905.56 1.652v6.216l4.396-6.636c.392-.616.812-1.064 1.26-1.344a2.709 2.709 0 011.54-.448c.653 0 1.213.084 1.68.252V314zm16.274-13.496V314h-3.78v-10.444h-3.22l-.476 3.808c-.28 2.203-.849 3.883-1.708 5.04-.84 1.157-1.932 1.745-3.276 1.764-.69 0-1.204-.159-1.54-.476-.336-.317-.513-.812-.532-1.484 0-.28.01-.485.028-.616.579-.019 1.083-.121 1.512-.308.43-.205.794-.532 1.092-.98.299-.467.551-1.129.756-1.988.206-.859.411-2.259.616-4.2l.392-3.612h10.136zm6.737 10.78h2.268c.616 0 1.101-.149 1.456-.448.373-.317.56-.728.56-1.232 0-.597-.196-1.036-.588-1.316-.374-.299-.952-.448-1.736-.448-.766 0-1.419.028-1.96.084v3.36zm-3.724-10.78c.037-.019.196-.037.476-.056.298-.037.569-.056.812-.056.84 0 1.456.187 1.848.56.392.355.588.905.588 1.652v2.604c.186-.019.392-.028.616-.028.242-.019.485-.028.728-.028a8.05 8.05 0 01.616-.028c3.976 0 5.964 1.493 5.964 4.48 0 1.344-.467 2.417-1.4 3.22-.915.784-2.203 1.176-3.864 1.176h-6.384v-13.496z" fill="url(#paint10_linear_314_54)"/><defs><linearGradient id="paint1_linear_314_54" x1="134.115" y1="-5.741" x2="314.88" y2="265.801" gradientUnits="userSpaceOnUse"><stop stop-color="#fff"/><stop offset="1" stop-color="#fff" stop-opacity="0"/></linearGradient><linearGradient id="paint2_linear_314_54" x1="226.801" y1="27" x2="226.801" y2="154.478" gradientUnits="userSpaceOnUse"><stop stop-color="#CBA543"/><stop offset=".354" stop-color="#D9B14A"/><stop offset="1" stop-color="#B89B36"/></linearGradient><linearGradient id="paint3_linear_314_54" x1="518.5" y1="41" x2="518.5" y2="81" gradientUnits="userSpaceOnUse"><stop stop-color="#CBA543"/><stop offset=".354" stop-color="#D9B14A"/><stop offset="1" stop-color="#B89B36"/></linearGradient><linearGradient id="paint4_linear_314_54" x1="522.5" y1="94" x2="427.106" y2="91.038" gradientUnits="userSpaceOnUse"><stop stop-color="#CBA543"/><stop offset=".354" stop-color="#D9B14A"/><stop offset="1" stop-color="#B89B36"/></linearGradient><linearGradient id="paint5_linear_314_54" x1="518" y1="107" x2="518" y2="147" gradientUnits="userSpaceOnUse"><stop stop-color="#CBA543"/><stop offset=".354" stop-color="#D9B14A"/><stop offset="1" stop-color="#B89B36"/></linearGradient><linearGradient id="paint7_linear_314_54" x1="213.96" y1="176.259" x2="347.029" y2="516.017" gradientUnits="userSpaceOnUse"><stop stop-color="#fff"/><stop offset="1" stop-color="#fff" stop-opacity="0"/></linearGradient><linearGradient id="paint8_linear_314_54" x1="226.801" y1="209" x2="226.801" y2="336.478" gradientUnits="userSpaceOnUse"><stop stop-color="#CBA543"/><stop offset=".354" stop-color="#D9B14A"/><stop offset="1" stop-color="#B89B36"/></linearGradient><linearGradient id="paint9_linear_314_54" x1="857" y1="231" x2="857" y2="332" gradientUnits="userSpaceOnUse"><stop stop-color="#CBA543"/><stop offset=".354" stop-color="#D9B14A"/><stop offset="1" stop-color="#B89B36"/></linearGradient><linearGradient id="paint10_linear_314_54" x1="555" y1="230" x2="555" y2="331" gradientUnits="userSpaceOnUse"><stop stop-color="#CBA543"/><stop offset=".354" stop-color="#D9B14A"/><stop offset="1" stop-color="#B89B36"/></linearGradient><filter id="filter0_bd_314_54" x="-.2" y="-12.2" width="666.4" height="219" filterUnits="userSpaceOnUse" color-interpolation-filters="sRGB"><feFlood flood-opacity="0" result="BackgroundImageFix"/><feGaussianBlur in="BackgroundImageFix" stdDeviation="9.1"/><feComposite in2="SourceAlpha" operator="in" result="effect1_backgroundBlur_314_54"/><feColorMatrix in="SourceAlpha" values="0 0 0 0 0 0 0 0 0 0 0 0 0 0 0 0 0 0 127 0" result="hardAlpha"/><feOffset dy="12"/><feGaussianBlur stdDeviation="8.9"/><feComposite in2="hardAlpha" operator="out"/><feColorMatrix values="0 0 0 0 0.717708 0 0 0 0 0.833646 0 0 0 0 0.883333 0 0 0 0.25 0"/><feBlend in2="effect1_backgroundBlur_314_54" result="effect2_dropShadow_314_54"/><feBlend in="SourceGraphic" in2="effect2_dropShadow_314_54" result="shape"/></filter><filter id="filter1_bd_314_54" x="-.2" y="169.8" width="1104.4" height="219" filterUnits="userSpaceOnUse" color-interpolation-filters="sRGB"><feFlood flood-opacity="0" result="BackgroundImageFix"/><feGaussianBlur in="BackgroundImageFix" stdDeviation="9.1"/><feComposite in2="SourceAlpha" operator="in" result="effect1_backgroundBlur_314_54"/><feColorMatrix in="SourceAlpha" values="0 0 0 0 0 0 0 0 0 0 0 0 0 0 0 0 0 0 127 0" result="hardAlpha"/><feOffset dy="12"/><feGaussianBlur stdDeviation="8.9"/><feComposite in2="hardAlpha" operator="out"/><feColorMatrix values="0 0 0 0 0.717708 0 0 0 0 0.833646 0 0 0 0 0.883333 0 0 0 0.25 0"/><feBlend in2="effect1_backgroundBlur_314_54" result="effect2_dropShadow_314_54"/><feBlend in="SourceGraphic" in2="effect2_dropShadow_314_54" result="shape"/></filter><filter id="filter2_d_314_54" x="42.602" y="207" width="979.398" height="135.478" filterUnits="userSpaceOnUse" color-interpolation-filters="sRGB"><feFlood flood-opacity="0" result="BackgroundImageFix"/><feColorMatrix in="SourceAlpha" values="0 0 0 0 0 0 0 0 0 0 0 0 0 0 0 0 0 0 127 0" result="hardAlpha"/><feOffset dx="3" dy="2"/><feGaussianBlur stdDeviation="2"/><feComposite in2="hardAlpha" operator="out"/><feColorMatrix values="0 0 0 0 0.779167 0 0 0 0 0.779167 0 0 0 0 0.779167 0 0 0 0.25 0"/><feBlend in2="BackgroundImageFix" result="effect1_dropShadow_314_54"/><feBlend in="SourceGraphic" in2="effect1_dropShadow_314_54" result="shape"/></filter><filter id="filter3_d_314_54" x="41.602" y="207" width="671.398" height="135.478" filterUnits="userSpaceOnUse" color-interpolation-filters="sRGB"><feFlood flood-opacity="0" result="BackgroundImageFix"/><feColorMatrix in="SourceAlpha" values="0 0 0 0 0 0 0 0 0 0 0 0 0 0 0 0 0 0 127 0" result="hardAlpha"/><feOffset dx="2" dy="2"/><feGaussianBlur stdDeviation="2"/><feComposite in2="hardAlpha" operator="out"/><feColorMatrix values="0 0 0 0 0.779167 0 0 0 0 0.779167 0 0 0 0 0.779167 0 0 0 0.25 0"/><feBlend in2="BackgroundImageFix" result="effect1_dropShadow_314_54"/><feBlend in="SourceGraphic" in2="effect1_dropShadow_314_54" result="shape"/></filter><radialGradient id="paint0_radial_314_54" cx="0" cy="0" r="1" gradientUnits="userSpaceOnUse" gradientTransform="matrix(565.75198 -22.89375 10.72731 265.09404 53.856 18.826)"><stop stop-color="#FBFBFB"/><stop offset="1" stop-color="#FCFCFC"/></radialGradient><radialGradient id="paint6_radial_314_54" cx="0" cy="0" r="1" gradientUnits="userSpaceOnUse" gradientTransform="rotate(-1.364 8475.2 -3157.089) scale(961.869 265.453)"><stop stop-color="#FBFBFB"/><stop offset="1" stop-color="#FCFCFC"/></radialGradient></defs></svg>