<svg width="17" height="51" fill="none" xmlns="http://www.w3.org/2000/svg"><path d="M10.549 18.543v8.22l.07 7.67v10.15c0 1.75.29 2.87.86 3.34a4.23 4.23 0 002.58.79c1.33.07 2 .35 2 .84s-.25.58-.76.58c-.22.014-.44.014-.66 0a49.825 49.825 0 00-6.32-.43 46.425 46.425 0 00-6.46.29c-.24.048-.485.071-.73.07-.59 0-.88-.22-.88-.66 0-.44.68-.74 2-.91a4.35 4.35 0 002.59-.89c.38-.43.57-1.64.57-3.64l.25-15.12c0-4.04-.303-6.43-.91-7.17-.61-.74-1.79-1.14-3.54-1.19-.59 0-.88-.19-.88-.58a.57.57 0 01.29-.51 25.553 25.553 0 014.35-.48c2.66-.23 4.54-.34 5.58-.37zM6.499.693a3.55 3.55 0 012.48 1 3 3 0 011.15 2.21 3.56 3.56 0 01-.9 2.44 3.1 3.1 0 01-2.46 1 3.82 3.82 0 01-2.49-.89 3 3 0 01-1.09-2.43 3.33 3.33 0 01.93-2.44 3.22 3.22 0 012.38-.89z" fill="#fff"/></svg>