<svg width="1290" height="862" fill="none" xmlns="http://www.w3.org/2000/svg"><g filter="url(#filter0_f_1_62)"><path fill-rule="evenodd" clip-rule="evenodd" d="M1207.09 634.029c-45.38 125.461-333.893 136.127-644.422 23.823C252.138 545.549 37.186 352.803 82.559 227.343c45.373-125.46 333.889-136.126 644.418-23.823 310.533 112.304 525.483 305.049 480.113 430.509zm-9.45-3.408c-43.77 121.022-326.76 129.617-632.08 19.198-305.32-110.42-517.35-298.04-473.582-419.062 43.768-121.022 326.759-129.617 632.079-19.198 305.323 110.42 517.353 298.04 473.583 419.062z" fill="url(#paint0_linear_1_62)"/></g><g opacity=".4" filter="url(#filter1_f_1_62)"><path fill-rule="evenodd" clip-rule="evenodd" d="M1205.69 637.924c-43.41 120.033-330.339 126.299-640.868 13.995C254.292 539.616 37.749 351.271 81.159 231.238c7.69-21.266 23.025-38.961 44.781-53.059-13.692 10.828-23.498 23.686-28.883 38.575-39.673 109.701 175.676 288.144 480.996 398.563 305.32 110.419 584.997 111.002 624.667 1.301 5.39-14.916 6.07-31.103 2.45-48.217 7.74 24.787 8.22 48.23.52 69.523zM508.983 157.477c67.771 13.359 139.748 33.26 213.04 59.766 73.364 26.532 141.482 57.309 202.166 90.426-60.747-32.539-129.002-63.046-202.466-89.614-73.387-26.54-145.293-46.735-212.74-60.578z" fill="url(#paint1_linear_1_62)"/></g><defs><linearGradient id="paint0_linear_1_62" x1="696.061" y1="215.664" x2="548.237" y2="624.412" gradientUnits="userSpaceOnUse"><stop stop-color="#fff" stop-opacity="0"/><stop offset=".24" stop-color="#fff" stop-opacity="0"/><stop offset=".5" stop-color="#fff" stop-opacity="0"/><stop offset=".786" stop-color="#fff" stop-opacity="0"/><stop offset="1" stop-color="#fff"/></linearGradient><linearGradient id="paint1_linear_1_62" x1="694.408" y1="220.249" x2="550.169" y2="619.084" gradientUnits="userSpaceOnUse"><stop stop-color="#4EB8C9" stop-opacity="0"/><stop offset=".146" stop-color="#916DF5" stop-opacity="0"/><stop offset=".5" stop-color="#C88CF8" stop-opacity="0"/><stop offset=".859" stop-color="#ABD9E0" stop-opacity=".24"/><stop offset="1" stop-color="#008DA1" stop-opacity=".69"/></linearGradient><filter id="filter0_f_1_62" x="69.014" y="118.302" width="1151.62" height="624.769" filterUnits="userSpaceOnUse" color-interpolation-filters="sRGB"><feFlood flood-opacity="0" result="BackgroundImageFix"/><feBlend in="SourceGraphic" in2="BackgroundImageFix" result="shape"/><feGaussianBlur stdDeviation="3.75" result="effect1_foregroundBlur_1_62"/></filter><filter id="filter1_f_1_62" x="69.521" y="151.377" width="1147.8" height="586.937" filterUnits="userSpaceOnUse" color-interpolation-filters="sRGB"><feFlood flood-opacity="0" result="BackgroundImageFix"/><feBlend in="SourceGraphic" in2="BackgroundImageFix" result="shape"/><feGaussianBlur stdDeviation="3.05" result="effect1_foregroundBlur_1_62"/></filter></defs></svg>