<svg width="218" height="54" fill="none" xmlns="http://www.w3.org/2000/svg"><path d="M.08 52.343V.935h32.47v9h-21.6v10.728h4.32c4.848 0 8.808.672 11.88 2.016 3.12 1.344 5.424 3.192 6.912 5.544 1.488 2.352 2.232 5.04 2.232 8.064 0 5.088-1.704 9.048-5.112 11.88-3.36 2.784-8.736 4.176-16.128 4.176H.08zm14.543-8.928c3.312 0 5.904-.528 7.776-1.584 1.92-1.056 2.88-2.904 2.88-5.544 0-2.736-1.032-4.536-3.096-5.4-2.064-.864-4.872-1.296-8.424-1.296h-2.808v13.824h3.672zM61.33 12.311c5.423 0 9.72 1.56 12.887 4.68 3.168 3.072 4.752 7.464 4.752 13.176v5.184H53.625c.096 3.024.984 5.4 2.664 7.128 1.728 1.728 4.104 2.592 7.128 2.592 2.544 0 4.848-.24 6.912-.72 2.064-.528 4.2-1.32 6.408-2.376v8.28c-1.92.96-3.96 1.656-6.12 2.088-2.112.48-4.68.72-7.704.72-3.936 0-7.416-.72-10.44-2.16-3.024-1.488-5.4-3.72-7.128-6.696-1.728-2.976-2.592-6.72-2.592-11.232 0-4.608.768-8.424 2.304-11.448 1.584-3.072 3.768-5.376 6.552-6.912 2.784-1.536 6.024-2.304 9.72-2.304zm.071 7.632c-2.064 0-3.792.672-5.184 2.016-1.344 1.344-2.136 3.432-2.376 6.264H68.89c-.048-2.4-.672-4.368-1.872-5.904-1.2-1.584-3.072-2.376-5.616-2.376zm61.475 32.4h-10.728V21.095h-9.864c-.624 7.68-1.464 13.872-2.52 18.576-1.008 4.656-2.424 8.064-4.248 10.224-1.824 2.112-4.272 3.168-7.344 3.168-2.496 0-4.536-.384-6.12-1.152v-8.568c1.104.48 2.256.72 3.456.72.864 0 1.656-.432 2.376-1.296.72-.864 1.392-2.424 2.016-4.68.672-2.256 1.272-5.4 1.8-9.432.528-4.08 1.008-9.288 1.44-15.624h29.736v39.312zm46.911-19.728c0 6.528-1.728 11.568-5.184 15.12-3.408 3.552-8.064 5.328-13.968 5.328-3.648 0-6.912-.792-9.792-2.376-2.832-1.584-5.064-3.888-6.696-6.912-1.632-3.072-2.448-6.792-2.448-11.16 0-6.528 1.704-11.544 5.112-15.048 3.408-3.504 8.088-5.256 14.04-5.256 3.696 0 6.96.792 9.792 2.376 2.832 1.584 5.064 3.888 6.696 6.912 1.632 2.976 2.448 6.648 2.448 11.016zm-27.144 0c0 3.888.624 6.84 1.872 8.856 1.296 1.968 3.384 2.952 6.264 2.952 2.832 0 4.872-.984 6.12-2.952 1.296-2.016 1.944-4.968 1.944-8.856s-.648-6.792-1.944-8.712c-1.248-1.968-3.312-2.952-6.192-2.952-2.832 0-4.896.984-6.192 2.952-1.248 1.92-1.872 4.824-1.872 8.712zm61.786-19.584h11.808l-15.552 18.864 16.92 20.448h-12.168L189.381 32.4v19.944h-10.728V13.031h10.728v19.08l15.048-19.08z" fill="#BD9039"/></svg>