<svg width="248" height="40" fill="none" xmlns="http://www.w3.org/2000/svg"><path d="M.27 30.19V2.617h21.818v27.571h-5.83V7.483H6.1V30.19H.271zM40.32 8.719c2.367 0 4.285.927 5.753 2.78 1.467 1.828 2.2 4.531 2.2 8.11 0 3.578-.759 6.307-2.278 8.186-1.518 1.853-3.462 2.78-5.83 2.78-1.52 0-2.73-.27-3.63-.81-.901-.567-1.635-1.198-2.201-1.893h-.31c.207 1.081.31 2.111.31 3.09v8.495H28.58V9.105h4.672l.811 2.742h.27c.567-.85 1.327-1.583 2.279-2.201.953-.618 2.188-.927 3.707-.927zm-1.855 4.595c-1.493 0-2.548.463-3.166 1.39-.592.927-.914 2.343-.965 4.248v.618c0 2.034.296 3.604.888 4.71.618 1.082 1.725 1.623 3.32 1.623 1.314 0 2.28-.54 2.897-1.622.644-1.107.965-2.69.965-4.75 0-4.144-1.313-6.217-3.939-6.217zm33.705 6.294c0 3.502-.927 6.205-2.78 8.11-1.829 1.905-4.326 2.857-7.492 2.857-1.957 0-3.707-.424-5.252-1.274-1.519-.85-2.716-2.085-3.591-3.707-.875-1.648-1.313-3.643-1.313-5.986 0-3.5.914-6.19 2.742-8.07 1.828-1.88 4.337-2.82 7.53-2.82 1.982 0 3.733.426 5.251 1.275 1.52.85 2.716 2.085 3.592 3.707.875 1.596 1.313 3.566 1.313 5.908zm-14.558 0c0 2.086.334 3.669 1.004 4.75.695 1.056 1.815 1.583 3.36 1.583 1.518 0 2.612-.527 3.281-1.583.695-1.081 1.043-2.664 1.043-4.75 0-2.085-.347-3.642-1.043-4.672-.669-1.056-1.776-1.583-3.32-1.583-1.52 0-2.626.527-3.321 1.583-.67 1.03-1.004 2.587-1.004 4.672zm18.038-2.046c0-4.66.876-8.277 2.626-10.851 1.777-2.575 4.699-4.222 8.766-4.943a72.5 72.5 0 014.132-.58c1.416-.18 2.87-.36 4.363-.54l.657 5.02c-.875.103-1.84.22-2.896.348l-3.09.386a47.66 47.66 0 00-2.703.347c-1.287.206-2.355.528-3.205.966-.85.412-1.506 1.081-1.97 2.008-.437.927-.707 2.265-.81 4.016h.27c.31-.49.734-.978 1.275-1.468.566-.489 1.261-.9 2.085-1.235.824-.335 1.763-.502 2.819-.502 2.523 0 4.518.772 5.985 2.317 1.493 1.544 2.24 3.848 2.24 6.912 0 2.394-.438 4.39-1.313 5.985-.875 1.596-2.085 2.806-3.63 3.63-1.544.798-3.334 1.197-5.368 1.197-3.114 0-5.599-1.12-7.452-3.36-1.854-2.239-2.78-5.457-2.78-9.653zm10.581 8.34c1.21 0 2.188-.411 2.935-1.235.772-.824 1.158-2.291 1.158-4.402 0-1.673-.283-3-.85-3.977-.54-1.005-1.492-1.507-2.857-1.507-.824 0-1.596.206-2.317.618a7.347 7.347 0 00-1.776 1.352c-.49.489-.824.914-1.004 1.274 0 1.313.142 2.575.425 3.785.283 1.21.76 2.2 1.429 2.973.695.746 1.647 1.12 2.857 1.12zm20.276-8.456c0 .438-.026.978-.077 1.622-.026.643-.065 1.3-.116 1.97a30.18 30.18 0 01-.116 1.776c-.052.514-.09.875-.116 1.08l9.731-14.789h6.912v21.084h-5.56v-8.418c0-.695.026-1.455.077-2.278.052-.85.103-1.635.154-2.356.078-.747.129-1.313.155-1.699l-9.693 14.751h-6.912V9.105h5.561v8.341zm41.385 2.162c0 3.502-.927 6.205-2.78 8.11-1.828 1.905-4.325 2.857-7.492 2.857-1.956 0-3.707-.424-5.251-1.274-1.519-.85-2.716-2.085-3.592-3.707-.875-1.648-1.312-3.643-1.312-5.986 0-3.5.913-6.19 2.741-8.07s4.338-2.82 7.53-2.82c1.983 0 3.733.426 5.252 1.275 1.519.85 2.716 2.085 3.591 3.707.876 1.596 1.313 3.566 1.313 5.908zm-14.558 0c0 2.086.335 3.669 1.004 4.75.695 1.056 1.815 1.583 3.36 1.583 1.519 0 2.613-.527 3.282-1.583.695-1.081 1.043-2.664 1.043-4.75 0-2.085-.348-3.642-1.043-4.672-.669-1.056-1.776-1.583-3.321-1.583-1.519 0-2.626.527-3.321 1.583-.669 1.03-1.004 2.587-1.004 4.672zm36.39-6.178h-6.912v16.76h-5.753V13.43h-6.913V9.105h19.578v4.325zm9.451 4.016c0 .438-.026.978-.077 1.622-.026.643-.065 1.3-.116 1.97a29.22 29.22 0 01-.116 1.776c-.051.514-.09.875-.116 1.08l9.731-14.789h6.912v21.084h-5.56v-8.418c0-.695.026-1.455.077-2.278.052-.85.103-1.635.155-2.356a51.78 51.78 0 00.154-1.699l-9.693 14.751h-6.912V9.105h5.561v8.341zm36.056-8.341h6.333l-8.341 10.117 9.075 10.967h-6.526l-8.611-10.696v10.696h-5.754V9.105h5.754v10.233l8.07-10.233zm15.645 8.341c0 .438-.026.978-.077 1.622-.026.643-.065 1.3-.116 1.97a29.22 29.22 0 01-.116 1.776c-.051.514-.09.875-.116 1.08l9.731-14.789h6.912v21.084h-5.56v-8.418c0-.695.026-1.455.077-2.278.052-.85.103-1.635.155-2.356a51.78 51.78 0 00.154-1.699l-9.693 14.751h-6.912V9.105h5.561v8.341z" fill="#BD9039"/></svg>